<?xml version="1.0" encoding="UTF-8"?>
<!DOCTYPE svg PUBLIC "-//W3C//DTD SVG 1.1//EN" "http://www.w3.org/Graphics/SVG/1.1/DTD/svg11.dtd">
<svg xmlns="http://www.w3.org/2000/svg" version="1.1" width="625px" height="625px" style="shape-rendering:geometricPrecision; text-rendering:geometricPrecision; image-rendering:optimizeQuality; fill-rule:evenodd; clip-rule:evenodd" xmlns:xlink="http://www.w3.org/1999/xlink">
<g><path style="opacity:0.995" fill="#222322" d="M 21.5,-0.5 C 214.167,-0.5 406.833,-0.5 599.5,-0.5C 609.26,7.10371 617.093,16.437 623,27.5C 623.667,216.833 623.667,406.167 623,595.5C 615.026,607.143 604.859,616.31 592.5,623C 404.5,623.667 216.5,623.667 28.5,623C 17.151,616.817 7.48433,608.65 -0.5,598.5C -0.5,406.833 -0.5,215.167 -0.5,23.5C 2.64542,19.2341 5.81209,14.9008 9,10.5C 13.3327,6.93363 17.4994,3.26697 21.5,-0.5 Z"/></g>
<g><path style="opacity:1" fill="#ab7f3b" d="M 47.5,26.5 C 222.169,26.2089 396.836,26.7089 571.5,28C 584.965,31.792 592.132,40.6253 593,54.5C 594.414,181.831 594.747,309.164 594,436.5C 593.5,437 593,437.5 592.5,438C 404.499,439.735 216.499,439.735 28.5,438C 28,437.5 27.5,437 27,436.5C 26.2072,307.164 26.5406,177.83 28,48.5C 31.1994,38.1397 37.6994,30.8064 47.5,26.5 Z"/></g>
<g><path style="opacity:1" fill="#262522" d="M 126.5,257.5 C 126.5,241.5 126.5,225.5 126.5,209.5C 136.899,143.637 171.232,94.8034 229.5,63C 302.996,30.2629 372.663,36.9296 438.5,83C 497.082,132.346 520.415,195.179 508.5,271.5C 487.487,351.677 436.487,401.51 355.5,421C 282.222,432.437 220.722,411.27 171,357.5C 151.593,334.856 138.093,309.022 130.5,280C 129.199,272.351 127.866,264.851 126.5,257.5 Z"/></g>
<g><path style="opacity:1" fill="#a97e3b" d="M 501.5,214.5 C 501.5,227.5 501.5,240.5 501.5,253.5C 490.738,326.093 451.404,376.259 383.5,404C 315.484,426.332 253.484,415.498 197.5,371.5C 148.929,327.233 128.596,272.067 136.5,206C 152.951,126.55 200.451,76.7164 279,56.5C 340.439,45.8136 394.939,59.9802 442.5,99C 457.963,113.354 470.963,129.854 481.5,148.5C 491.867,169.283 498.534,191.283 501.5,214.5 Z"/></g>
<g><path style="opacity:1" fill="#212221" d="M 309.5,61.5 C 314.167,61.5 318.833,61.5 323.5,61.5C 323.5,176.167 323.5,290.833 323.5,405.5C 318.833,405.5 314.167,405.5 309.5,405.5C 309.5,290.833 309.5,176.167 309.5,61.5 Z"/></g>
<g><path style="opacity:1" fill="#3e3425" d="M 323.5,406.5 C 323.5,406.167 323.5,405.833 323.5,405.5C 323.5,290.833 323.5,176.167 323.5,61.5C 318.833,61.5 314.167,61.5 309.5,61.5C 309.5,61.1667 309.5,60.8333 309.5,60.5C 314.234,59.1764 319.067,59.1764 324,60.5C 324.833,176.001 324.666,291.334 323.5,406.5 Z"/></g>
<g><path style="opacity:1" fill="#232322" d="M 287.5,63.5 C 288.5,63.5 289.5,63.5 290.5,63.5C 290.5,82.5 290.5,101.5 290.5,120.5C 289.167,120.5 287.833,120.5 286.5,120.5C 279.429,120.322 272.429,119.489 265.5,118C 258.019,115.546 250.352,113.546 242.5,112C 235.389,109.278 228.389,106.278 221.5,103C 218.267,100.559 214.934,98.3918 211.5,96.5C 213.411,93.8779 215.745,91.7112 218.5,90C 236.16,78.6715 255.16,70.3382 275.5,65C 279.466,64.1721 283.466,63.6721 287.5,63.5 Z"/></g>
<g><path style="opacity:1" fill="#3b3324" d="M 309.5,60.5 C 309.5,60.8333 309.5,61.1667 309.5,61.5C 309.5,176.167 309.5,290.833 309.5,405.5C 314.167,405.5 318.833,405.5 323.5,405.5C 323.5,405.833 323.5,406.167 323.5,406.5C 318.238,406.805 313.072,406.471 308,405.5C 307.333,290.833 307.333,176.167 308,61.5C 308.383,60.944 308.883,60.6107 309.5,60.5 Z"/></g>
<g><path style="opacity:1" fill="#232322" d="M 340.5,62.5 C 354.711,62.9751 368.377,65.8084 381.5,71C 396.525,77.0121 410.525,84.8454 423.5,94.5C 419.036,97.5701 414.369,100.403 409.5,103C 387.634,113.013 364.634,119.18 340.5,121.5C 340.5,101.833 340.5,82.1667 340.5,62.5 Z"/></g>
<g><path style="opacity:1" fill="#423823" d="M 287.5,63.5 C 288.568,62.5655 289.901,62.2322 291.5,62.5C 291.5,82.1667 291.5,101.833 291.5,121.5C 289.585,121.784 287.919,121.451 286.5,120.5C 287.833,120.5 289.167,120.5 290.5,120.5C 290.5,101.5 290.5,82.5 290.5,63.5C 289.5,63.5 288.5,63.5 287.5,63.5 Z"/></g>
<g><path style="opacity:1" fill="#232322" d="M 444.5,114.5 C 445.552,114.351 446.552,114.517 447.5,115C 469.806,138.438 484.139,166.271 490.5,198.5C 490.167,199.833 489.833,201.167 489.5,202.5C 486.052,204.45 482.385,205.95 478.5,207C 477.167,207.667 475.833,207.667 474.5,207C 472.9,204.351 471.066,201.851 469,199.5C 466.494,194.812 464.828,189.812 464,184.5C 461.156,183.074 458.322,181.574 455.5,180C 453.553,179.009 451.553,178.675 449.5,179C 441.359,191.136 430.692,200.469 417.5,207C 419.304,209.298 421.637,209.965 424.5,209C 432.072,205.749 439.405,202.083 446.5,198C 448.5,197.333 450.5,197.333 452.5,198C 455.119,203.565 457.619,209.065 460,214.5C 435.379,227.782 414.379,245.449 397,267.5C 387.663,260.495 379.329,252.495 372,243.5C 360.391,225.956 350.058,207.623 341,188.5C 340.333,176.167 340.333,163.833 341,151.5C 361.174,148.382 381.007,143.882 400.5,138C 409.033,134.335 417.7,130.835 426.5,127.5C 433.056,123.946 439.056,119.612 444.5,114.5 Z"/></g>
<g><path style="opacity:1" fill="#232322" d="M 186.5,117.5 C 187.873,117.343 189.207,117.51 190.5,118C 221.121,136.668 254.454,147.668 290.5,151C 291.655,163.424 291.821,175.924 291,188.5C 282.494,207.844 272.16,226.177 260,243.5C 252.609,252.726 244.109,260.726 234.5,267.5C 228.756,260.391 222.756,253.391 216.5,246.5C 212.391,243.894 208.724,240.727 205.5,237C 194.704,228.668 183.204,221.168 171,214.5C 174.03,208.766 176.863,202.766 179.5,196.5C 189.413,200.707 199.246,205.041 209,209.5C 211.009,208.828 212.842,207.828 214.5,206.5C 205.15,202.548 196.984,196.882 190,189.5C 187.608,186.772 185.608,183.772 184,180.5C 183.261,179.426 182.261,178.759 181,178.5C 176.52,179.49 172.353,181.156 168.5,183.5C 166.46,192.133 162.793,199.966 157.5,207C 153.55,206.889 149.717,206.055 146,204.5C 145.378,200.971 145.545,197.471 146.5,194C 153.868,165.152 167.201,139.652 186.5,117.5 Z"/></g>
<g><path style="opacity:1" fill="#3f3625" d="M 126.5,209.5 C 126.5,225.5 126.5,241.5 126.5,257.5C 123.865,241.499 123.865,225.499 126.5,209.5 Z"/></g>
<g><path style="opacity:1" fill="#856530" d="M 501.5,214.5 C 504.167,227.5 504.167,240.5 501.5,253.5C 501.5,240.5 501.5,227.5 501.5,214.5 Z"/></g>
<g><path style="opacity:1" fill="#242422" d="M 491.5,232.5 C 492.5,232.5 493.5,232.5 494.5,232.5C 493.673,283.302 475.006,326.135 438.5,361C 423.865,373.326 407.865,383.659 390.5,392C 389.207,392.49 387.873,392.657 386.5,392.5C 388.672,378.804 391.172,365.137 394,351.5C 394.9,349.602 396.066,347.936 397.5,346.5C 398.842,348.005 400.508,348.672 402.5,348.5C 399.339,355.171 397.006,362.171 395.5,369.5C 395.188,372.876 396.022,375.876 398,378.5C 401.757,371.314 405.757,364.314 410,357.5C 412.447,354.968 415.114,352.634 418,350.5C 418.484,346.399 417.984,342.399 416.5,338.5C 411.999,336.692 407.332,335.192 402.5,334C 401.941,333.275 401.608,332.442 401.5,331.5C 409.65,303.931 423.984,280.431 444.5,261C 447.613,259.545 450.446,257.712 453,255.5C 454.261,255.759 455.261,256.426 456,257.5C 457.373,260.412 458.873,263.246 460.5,266C 453.333,270.5 447.5,276.333 443,283.5C 442.333,284.833 442.333,286.167 443,287.5C 451.207,283.156 459.707,279.49 468.5,276.5C 471.334,271.669 473.334,266.502 474.5,261C 472.153,257.252 469.986,253.419 468,249.5C 467.333,247.833 467.333,246.167 468,244.5C 475.848,240.327 483.681,236.327 491.5,232.5 Z"/></g>
<g><path style="opacity:1" fill="#242422" d="M 142.5,235.5 C 150.099,237.134 157.099,240.134 163.5,244.5C 164.833,246.5 164.833,248.5 163.5,250.5C 161.488,253.862 159.488,257.195 157.5,260.5C 159.776,265.603 161.109,270.936 161.5,276.5C 171.434,279.365 180.934,283.365 190,288.5C 190.122,286.831 189.788,285.165 189,283.5C 186.886,282.047 185.552,280.047 185,277.5C 180.827,273.323 176.327,269.49 171.5,266C 173.933,262.568 175.933,258.901 177.5,255C 189.128,262.955 199.294,272.788 208,284.5C 211.612,290.95 215.445,297.284 219.5,303.5C 223.583,310.822 226.917,318.488 229.5,326.5C 230.583,328.875 230.583,331.208 229.5,333.5C 225.041,335.072 220.541,336.405 216,337.5C 213.782,341.246 212.782,345.246 213,349.5C 217,352.167 220.333,355.5 223,359.5C 227.036,365.478 230.536,371.812 233.5,378.5C 234.086,378.291 234.586,377.957 235,377.5C 236.833,371.806 236.666,366.139 234.5,360.5C 232.358,357.249 230.692,353.749 229.5,350C 229.645,349.228 229.978,348.561 230.5,348C 232.473,347.505 234.473,347.338 236.5,347.5C 240.296,361.681 243.296,376.014 245.5,390.5C 238.504,387.441 231.504,384.274 224.5,381C 184.138,354.243 157.972,317.41 146,270.5C 144.266,258.885 143.099,247.218 142.5,235.5 Z"/></g>
<g><path style="opacity:1" fill="#242422" d="M 340.5,251.5 C 342.516,252.456 344.349,253.79 346,255.5C 355.459,269.959 367.292,282.126 381.5,292C 382.059,292.725 382.392,293.558 382.5,294.5C 379.628,298.619 377.628,303.119 376.5,308C 375.167,308.667 373.833,308.667 372.5,308C 369.683,306.664 367.017,305.164 364.5,303.5C 359.214,304.604 353.881,305.27 348.5,305.5C 350.022,316.57 349.689,327.57 347.5,338.5C 348.002,339.521 348.668,339.688 349.5,339C 352.052,337.229 354.385,335.229 356.5,333C 358.006,327.943 358.673,322.776 358.5,317.5C 362.952,318.622 366.619,320.956 369.5,324.5C 361.101,350.21 355.268,376.543 352,403.5C 348.281,404.648 344.448,405.314 340.5,405.5C 340.5,354.167 340.5,302.833 340.5,251.5 Z"/></g>
<g><path style="opacity:1" fill="#242422" d="M 288.5,253.5 C 290.495,303.156 291.162,353.156 290.5,403.5C 287.167,403.167 283.833,402.833 280.5,402.5C 277.773,389.97 275.439,377.136 273.5,364C 269.781,350.567 265.781,337.234 261.5,324C 264.231,321.12 267.564,318.954 271.5,317.5C 272.662,322.128 273.662,326.794 274.5,331.5C 276.671,335.016 279.671,337.349 283.5,338.5C 282.568,327.538 282.235,316.538 282.5,305.5C 277.465,305.161 272.465,304.494 267.5,303.5C 263.778,305.69 259.778,307.357 255.5,308.5C 253.77,303.008 251.936,297.675 250,292.5C 257.207,287.081 264.207,281.415 271,275.5C 277.553,268.722 283.386,261.389 288.5,253.5 Z"/></g>
<g><path style="opacity:1" fill="#393120" d="M 280.5,402.5 C 283.833,402.833 287.167,403.167 290.5,403.5C 291.162,353.156 290.495,303.156 288.5,253.5C 289.122,252.373 289.955,251.373 291,250.5C 291.5,301.832 291.667,353.166 291.5,404.5C 287.511,404.884 283.845,404.217 280.5,402.5 Z"/></g>
<g><path style="opacity:1" fill="#a6a7a6" d="M 124.5,498.5 C 124.5,497.167 124.5,495.833 124.5,494.5C 121.167,494.5 117.833,494.5 114.5,494.5C 114.795,496.735 114.461,498.735 113.5,500.5C 113.5,498.167 113.5,495.833 113.5,493.5C 117.5,493.5 121.5,493.5 125.5,493.5C 125.784,495.415 125.451,497.081 124.5,498.5 Z"/></g>
<g><path style="opacity:1" fill="#9e9e9e" d="M 135.5,494.5 C 137.978,493.836 140.645,493.503 143.5,493.5C 146.59,493.522 149.257,494.188 151.5,495.5C 146.26,494.551 140.927,494.218 135.5,494.5 Z"/></g>
<g><path style="opacity:1" fill="#f8f8f8" d="M 201.5,493.5 C 218.858,490.418 229.358,497.418 233,514.5C 233.881,523.562 233.548,532.562 232,541.5C 227.453,555.354 217.953,560.854 203.5,558C 192.482,554.168 186.649,546.335 186,534.5C 183.988,521.895 186.321,510.228 193,499.5C 195.736,497.248 198.569,495.248 201.5,493.5 Z"/></g>
<g><path style="opacity:1" fill="#a3a3a3" d="M 248.5,497.5 C 247.596,496.791 247.263,495.791 247.5,494.5C 243.671,493.931 240.337,494.598 237.5,496.5C 236.596,495.791 236.263,494.791 236.5,493.5C 240.5,493.5 244.5,493.5 248.5,493.5C 248.5,494.833 248.5,496.167 248.5,497.5 Z"/></g>
<g><path style="opacity:1" fill="#acacac" d="M 289.5,494.5 C 286.167,494.5 282.833,494.5 279.5,494.5C 279.737,495.791 279.404,496.791 278.5,497.5C 278.5,496.167 278.5,494.833 278.5,493.5C 282.371,493.185 286.038,493.518 289.5,494.5 Z"/></g>
<g><path style="opacity:1" fill="#f7f7f7" d="M 473.5,493.5 C 479.509,493.334 485.509,493.501 491.5,494C 503.334,496.96 504.334,501.794 494.5,508.5C 486.338,501.864 478.172,501.864 470,508.5C 464.394,519.23 464.061,530.23 469,541.5C 474.122,547.652 480.622,549.818 488.5,548C 489.464,543.934 489.797,539.767 489.5,535.5C 485.833,535.5 482.167,535.5 478.5,535.5C 478.5,531.833 478.5,528.167 478.5,524.5C 485.833,524.5 493.167,524.5 500.5,524.5C 500.5,535.167 500.5,545.833 500.5,556.5C 494.521,557.295 488.521,557.962 482.5,558.5C 467.962,558.455 458.795,551.455 455,537.5C 454.333,529.5 454.333,521.5 455,513.5C 457.783,503.529 463.95,496.863 473.5,493.5 Z"/></g>
<g><path style="opacity:1" fill="#d8d8d8" d="M 92.5,494.5 C 89.1667,494.5 85.8333,494.5 82.5,494.5C 82.5,515.5 82.5,536.5 82.5,557.5C 81.5027,536.34 81.1694,515.007 81.5,493.5C 85.3714,493.185 89.0381,493.518 92.5,494.5 Z"/></g>
<g><path style="opacity:1" fill="#fcfcfc" d="M 92.5,494.5 C 92.5,505.167 92.5,515.833 92.5,526.5C 105.311,522.675 112.311,514.009 113.5,500.5C 114.461,498.735 114.795,496.735 114.5,494.5C 117.833,494.5 121.167,494.5 124.5,494.5C 124.5,495.833 124.5,497.167 124.5,498.5C 123.61,509.516 119.61,519.183 112.5,527.5C 117.755,537.01 122.755,546.676 127.5,556.5C 123.167,557.833 118.833,557.833 114.5,556.5C 110.961,549.255 107.294,542.089 103.5,535C 99.8641,535.319 96.1974,535.819 92.5,536.5C 92.5,543.5 92.5,550.5 92.5,557.5C 89.1667,557.5 85.8333,557.5 82.5,557.5C 82.5,536.5 82.5,515.5 82.5,494.5C 85.8333,494.5 89.1667,494.5 92.5,494.5 Z"/></g>
<g><path style="opacity:1" fill="#f9f9f9" d="M 135.5,494.5 C 140.927,494.218 146.26,494.551 151.5,495.5C 155.765,511.294 160.432,526.96 165.5,542.5C 166.499,526.18 166.833,509.847 166.5,493.5C 169.833,493.5 173.167,493.5 176.5,493.5C 176.5,514.833 176.5,536.167 176.5,557.5C 171.238,557.805 166.072,557.471 161,556.5C 156.642,540.398 151.975,524.398 147,508.5C 146.5,524.83 146.333,541.163 146.5,557.5C 142.833,557.5 139.167,557.5 135.5,557.5C 135.5,536.5 135.5,515.5 135.5,494.5 Z"/></g>
<g><path style="opacity:1" fill="#f6f6f6" d="M 248.5,497.5 C 249.627,514.53 251.127,531.53 253,548.5C 254.813,536.187 256.479,523.854 258,511.5C 259.525,510.28 261.359,509.613 263.5,509.5C 265.641,509.613 267.475,510.28 269,511.5C 270.667,523.833 272.333,536.167 274,548.5C 275.776,531.52 277.276,514.52 278.5,497.5C 279.404,496.791 279.737,495.791 279.5,494.5C 282.833,494.5 286.167,494.5 289.5,494.5C 287.647,515.514 285.647,536.514 283.5,557.5C 278.167,557.5 272.833,557.5 267.5,557.5C 266.354,547.516 265.354,537.516 264.5,527.5C 264.785,525.712 264.452,524.045 263.5,522.5C 262.571,523.689 262.238,525.022 262.5,526.5C 261.573,536.841 260.573,547.174 259.5,557.5C 254.167,557.5 248.833,557.5 243.5,557.5C 241.793,537.137 239.793,516.804 237.5,496.5C 240.337,494.598 243.671,493.931 247.5,494.5C 247.263,495.791 247.596,496.791 248.5,497.5 Z"/></g>
<g><path style="opacity:1" fill="#fefefe" d="M 308.5,547.5 C 319.167,547.5 329.833,547.5 340.5,547.5C 340.5,550.833 340.5,554.167 340.5,557.5C 326.167,557.5 311.833,557.5 297.5,557.5C 297.5,536.5 297.5,515.5 297.5,494.5C 300.833,494.5 304.167,494.5 307.5,494.5C 307.17,512.341 307.503,530.008 308.5,547.5 Z"/></g>
<g><path style="opacity:1" fill="#fefefe" d="M 393.5,494.5 C 393.5,497.5 393.5,500.5 393.5,503.5C 382.833,503.5 372.167,503.5 361.5,503.5C 361.5,509.167 361.5,514.833 361.5,520.5C 369.5,520.5 377.5,520.5 385.5,520.5C 385.5,523.833 385.5,527.167 385.5,530.5C 377.5,530.5 369.5,530.5 361.5,530.5C 361.5,536.167 361.5,541.833 361.5,547.5C 372.167,547.5 382.833,547.5 393.5,547.5C 393.5,550.833 393.5,554.167 393.5,557.5C 379.5,557.5 365.5,557.5 351.5,557.5C 351.5,536.5 351.5,515.5 351.5,494.5C 365.5,494.5 379.5,494.5 393.5,494.5 Z"/></g>
<g><path style="opacity:1" fill="#fafafa" d="M 403.5,493.5 C 442.795,490.404 456.628,507.738 445,545.5C 440.561,551.976 434.395,555.81 426.5,557C 418.841,557.5 411.174,557.666 403.5,557.5C 403.5,536.167 403.5,514.833 403.5,493.5 Z"/></g>
<g><path style="opacity:1" fill="#fefefe" d="M 554.5,494.5 C 554.5,497.5 554.5,500.5 554.5,503.5C 543.654,503.172 532.987,503.506 522.5,504.5C 522.5,509.833 522.5,515.167 522.5,520.5C 530.5,520.5 538.5,520.5 546.5,520.5C 546.5,523.833 546.5,527.167 546.5,530.5C 538.5,530.5 530.5,530.5 522.5,530.5C 522.178,536.358 522.511,542.025 523.5,547.5C 533.833,547.5 544.167,547.5 554.5,547.5C 554.5,550.833 554.5,554.167 554.5,557.5C 540.5,557.5 526.5,557.5 512.5,557.5C 512.5,536.5 512.5,515.5 512.5,494.5C 526.5,494.5 540.5,494.5 554.5,494.5 Z"/></g>
<g><path style="opacity:1" fill="#c2c2c2" d="M 393.5,494.5 C 379.5,494.5 365.5,494.5 351.5,494.5C 351.5,515.5 351.5,536.5 351.5,557.5C 350.503,536.34 350.169,515.007 350.5,493.5C 365.01,493.171 379.343,493.504 393.5,494.5 Z"/></g>
<g><path style="opacity:1" fill="#252625" d="M 205.5,503.5 C 215.233,502.395 220.733,506.729 222,516.5C 223.193,525.756 222.193,534.756 219,543.5C 208.807,551.591 201.807,549.258 198,536.5C 197.333,529.167 197.333,521.833 198,514.5C 199.043,509.721 201.543,506.054 205.5,503.5 Z"/></g>
<g><path style="opacity:1" fill="#818281" d="M 554.5,493.5 C 555.482,496.962 555.815,500.629 555.5,504.5C 544.5,504.5 533.5,504.5 522.5,504.5C 532.987,503.506 543.654,503.172 554.5,503.5C 554.5,500.5 554.5,497.5 554.5,494.5C 554.5,494.167 554.5,493.833 554.5,493.5 Z"/></g>
<g><path style="opacity:1" fill="#232423" d="M 414.5,504.5 C 429.897,502.733 437.564,509.566 437.5,525C 438.551,541.449 430.885,548.949 414.5,547.5C 414.5,533.167 414.5,518.833 414.5,504.5 Z"/></g>
<g><path style="opacity:1" fill="#aeaeae" d="M 554.5,493.5 C 554.5,493.833 554.5,494.167 554.5,494.5C 540.5,494.5 526.5,494.5 512.5,494.5C 512.5,515.5 512.5,536.5 512.5,557.5C 511.503,536.34 511.169,515.007 511.5,493.5C 525.833,493.5 540.167,493.5 554.5,493.5 Z"/></g>
<g><path style="opacity:1" fill="#666766" d="M 264.5,527.5 C 263.833,527.167 263.167,526.833 262.5,526.5C 262.238,525.022 262.571,523.689 263.5,522.5C 264.452,524.045 264.785,525.712 264.5,527.5 Z"/></g>
<g><path style="opacity:1" fill="#424342" d="M 546.5,530.5 C 539.018,531.492 531.352,531.825 523.5,531.5C 523.5,536.833 523.5,542.167 523.5,547.5C 522.511,542.025 522.178,536.358 522.5,530.5C 530.5,530.5 538.5,530.5 546.5,530.5 Z"/></g>
<g><path style="opacity:1" fill="#888988" d="M 308.5,547.5 C 307.503,530.008 307.17,512.341 307.5,494.5C 304.167,494.5 300.833,494.5 297.5,494.5C 297.5,515.5 297.5,536.5 297.5,557.5C 296.503,536.34 296.169,515.007 296.5,493.5C 300.5,493.5 304.5,493.5 308.5,493.5C 308.5,511.5 308.5,529.5 308.5,547.5 Z"/></g>
</svg>
