<?xml version="1.0" encoding="UTF-8"?>
<!DOCTYPE svg PUBLIC "-//W3C//DTD SVG 1.1//EN" "http://www.w3.org/Graphics/SVG/1.1/DTD/svg11.dtd">
<svg xmlns="http://www.w3.org/2000/svg" version="1.1" width="625px" height="625px" style="shape-rendering:geometricPrecision; text-rendering:geometricPrecision; image-rendering:optimizeQuality; fill-rule:evenodd; clip-rule:evenodd" xmlns:xlink="http://www.w3.org/1999/xlink">
<g><path style="opacity:0.995" fill="#222322" d="M 21.5,-0.5 C 214.167,-0.5 406.833,-0.5 599.5,-0.5C 609.26,7.10371 617.093,16.437 623,27.5C 623.667,216.833 623.667,406.167 623,595.5C 615.026,607.143 604.859,616.31 592.5,623C 404.5,623.667 216.5,623.667 28.5,623C 17.151,616.817 7.48433,608.65 -0.5,598.5C -0.5,406.833 -0.5,215.167 -0.5,23.5C 2.64542,19.2341 5.81209,14.9008 9,10.5C 13.3327,6.93363 17.4994,3.26697 21.5,-0.5 Z"/></g>
<g><path style="opacity:1" fill="#acfc8a" d="M 592.5,439.5 C 551.833,439.5 511.167,439.5 470.5,439.5C 470.5,437.167 470.5,434.833 470.5,432.5C 470.5,431.167 470.5,429.833 470.5,428.5C 462.5,428.5 454.5,428.5 446.5,428.5C 440.167,428.5 433.833,428.5 427.5,428.5C 418.682,427.507 409.682,427.173 400.5,427.5C 400.216,429.415 400.549,431.081 401.5,432.5C 401.5,434.833 401.5,437.167 401.5,439.5C 341.167,439.5 280.833,439.5 220.5,439.5C 220.5,437.5 220.5,435.5 220.5,433.5C 220.5,432.167 220.5,430.833 220.5,429.5C 212.5,429.5 204.5,429.5 196.5,429.5C 190.167,429.5 183.833,429.5 177.5,429.5C 168.682,428.507 159.682,428.173 150.5,428.5C 150.216,430.415 150.549,432.081 151.5,433.5C 151.5,435.833 151.5,438.167 151.5,440.5C 110.499,440.667 69.4986,440.5 28.5,440C 27.3333,438.833 26.1667,437.667 25,436.5C 24.2072,307.164 24.5406,177.83 26,48.5C 29.6801,37.4861 36.8468,29.6528 47.5,25C 222.169,24.2089 396.836,24.5422 571.5,26C 581.755,29.2507 589.255,35.7507 594,45.5C 594.333,48.5 594.667,51.5 595,54.5C 596.414,181.831 596.747,309.164 596,436.5C 594.961,437.71 593.794,438.71 592.5,439.5 Z"/></g>
<g><path style="opacity:1" fill="#232422" d="M 406.5,267.5 C 405.833,268.167 405.167,268.833 404.5,269.5C 397.09,263.528 391.757,256.028 388.5,247C 386.888,246.28 385.388,246.446 384,247.5C 383.187,249.436 382.687,251.436 382.5,253.5C 380.986,259.595 380.32,265.928 380.5,272.5C 380.501,277.013 380.834,281.347 381.5,285.5C 384.526,303.547 391.86,319.547 403.5,333.5C 393.013,334.494 382.346,334.828 371.5,334.5C 345.999,314.497 332.999,288.164 332.5,255.5C 332.408,236.52 337.575,219.187 348,203.5C 349.711,200.745 351.878,198.411 354.5,196.5C 355.174,203.584 356.34,210.584 358,217.5C 359.733,219.602 361.733,219.935 364,218.5C 374.102,202.141 376.102,184.808 370,166.5C 362.832,155.344 358.999,143.178 358.5,130C 358.054,120.174 360.721,111.341 366.5,103.5C 367.167,105.5 367.833,107.5 368.5,109.5C 369.692,123.262 375.358,134.762 385.5,144C 388.237,146.136 391.237,147.136 394.5,147C 395.108,145.769 395.441,144.436 395.5,143C 392.882,128.682 392.882,114.516 395.5,100.5C 396.924,98.4855 397.59,96.1522 397.5,93.5C 402.582,78.6729 411.915,67.3396 425.5,59.5C 425.833,59.8333 426.167,60.1667 426.5,60.5C 422.866,75.5619 424.7,89.8952 432,103.5C 440.124,114.991 449.957,124.825 461.5,133C 475.784,145.939 486.95,161.106 495,178.5C 498.916,179.61 500.916,177.943 501,173.5C 501.333,165.167 501.667,156.833 502,148.5C 531.567,174.497 546.067,207.331 545.5,247C 545.348,280.484 533.015,308.484 508.5,331C 506.5,332.333 504.5,333.667 502.5,335C 490.5,335.667 478.5,335.667 466.5,335C 510.411,277.489 507.411,222.489 457.5,170C 455.99,169.15 454.49,168.317 453,167.5C 452.228,167.645 451.561,167.978 451,168.5C 450.809,183.317 448.142,197.65 443,211.5C 438.88,219.399 433.546,226.399 427,232.5C 419.423,241.312 413.09,250.978 408,261.5C 407.187,263.436 406.687,265.436 406.5,267.5 Z"/></g>
<g><path style="opacity:1" fill="#232422" d="M 156.5,268.5 C 155.833,269.167 155.167,269.833 154.5,270.5C 147.09,264.528 141.757,257.028 138.5,248C 136.888,247.28 135.388,247.446 134,248.5C 133.187,250.436 132.687,252.436 132.5,254.5C 130.986,260.595 130.32,266.928 130.5,273.5C 130.501,278.013 130.834,282.347 131.5,286.5C 134.526,304.547 141.86,320.547 153.5,334.5C 143.013,335.494 132.346,335.828 121.5,335.5C 95.9991,315.497 82.9991,289.164 82.5,256.5C 82.4082,237.52 87.5749,220.187 98,204.5C 99.7112,201.745 101.878,199.411 104.5,197.5C 105.174,204.584 106.34,211.584 108,218.5C 109.733,220.602 111.733,220.935 114,219.5C 124.102,203.141 126.102,185.808 120,167.5C 112.832,156.344 108.999,144.178 108.5,131C 108.054,121.174 110.721,112.341 116.5,104.5C 117.167,106.5 117.833,108.5 118.5,110.5C 119.692,124.262 125.358,135.762 135.5,145C 138.237,147.136 141.237,148.136 144.5,148C 145.108,146.769 145.441,145.436 145.5,144C 142.882,129.682 142.882,115.516 145.5,101.5C 146.924,99.4855 147.59,97.1522 147.5,94.5C 152.582,79.6729 161.915,68.3396 175.5,60.5C 175.833,60.8333 176.167,61.1667 176.5,61.5C 172.866,76.5619 174.7,90.8952 182,104.5C 190.124,115.991 199.957,125.825 211.5,134C 225.784,146.939 236.95,162.106 245,179.5C 248.916,180.61 250.916,178.943 251,174.5C 251.333,166.167 251.667,157.833 252,149.5C 281.567,175.497 296.067,208.331 295.5,248C 295.348,281.484 283.015,309.484 258.5,332C 256.5,333.333 254.5,334.667 252.5,336C 240.5,336.667 228.5,336.667 216.5,336C 260.411,278.489 257.411,223.489 207.5,171C 205.99,170.15 204.49,169.317 203,168.5C 202.228,168.645 201.561,168.978 201,169.5C 200.809,184.317 198.142,198.65 193,212.5C 188.88,220.399 183.546,227.399 177,233.5C 169.423,242.312 163.09,251.978 158,262.5C 157.187,264.436 156.687,266.436 156.5,268.5 Z"/></g>
<g><path style="opacity:1" fill="#48603f" d="M 397.5,93.5 C 397.59,96.1522 396.924,98.4855 395.5,100.5C 395.41,97.8478 396.076,95.5145 397.5,93.5 Z"/></g>
<g><path style="opacity:1" fill="#a1ec82" d="M 412.5,95.5 C 415.59,94.83 417.257,95.9967 417.5,99C 415.826,102.851 413.992,106.684 412,110.5C 411.232,118.197 411.398,125.863 412.5,133.5C 411.006,137.075 408.839,137.409 406,134.5C 402.301,120.423 404.468,107.423 412.5,95.5 Z"/></g>
<g><path style="opacity:1" fill="#48603f" d="M 147.5,94.5 C 147.59,97.1522 146.924,99.4855 145.5,101.5C 145.41,98.8478 146.076,96.5145 147.5,94.5 Z"/></g>
<g><path style="opacity:1" fill="#a1ec82" d="M 162.5,96.5 C 165.59,95.83 167.257,96.9967 167.5,100C 165.826,103.851 163.992,107.684 162,111.5C 161.232,119.197 161.398,126.863 162.5,134.5C 161.006,138.075 158.839,138.409 156,135.5C 152.301,121.423 154.468,108.423 162.5,96.5 Z"/></g>
<g><path style="opacity:1" fill="#49643f" d="M 366.5,103.5 C 366.56,102.957 366.893,102.624 367.5,102.5C 368.474,104.743 368.808,107.076 368.5,109.5C 367.833,107.5 367.167,105.5 366.5,103.5 Z"/></g>
<g><path style="opacity:1" fill="#49643f" d="M 116.5,104.5 C 116.56,103.957 116.893,103.624 117.5,103.5C 118.474,105.743 118.808,108.076 118.5,110.5C 117.833,108.5 117.167,106.5 116.5,104.5 Z"/></g>
<g><path style="opacity:1" fill="#222422" d="M 456.5,179.5 C 494.16,218.954 500.327,262.954 475,311.5C 469.937,319.898 464.104,327.731 457.5,335C 443.167,335.667 428.833,335.667 414.5,335C 393.759,314.777 384.926,290.277 388,261.5C 393.134,267.635 398.634,273.469 404.5,279C 406.624,280.582 408.79,280.749 411,279.5C 411.453,270.475 414.119,262.141 419,254.5C 425.533,244.294 433.2,234.961 442,226.5C 451.445,212.271 456.279,196.604 456.5,179.5 Z"/></g>
<g><path style="opacity:1" fill="#222422" d="M 206.5,180.5 C 244.16,219.954 250.327,263.954 225,312.5C 219.937,320.898 214.104,328.731 207.5,336C 193.167,336.667 178.833,336.667 164.5,336C 143.759,315.777 134.926,291.277 138,262.5C 143.134,268.635 148.634,274.469 154.5,280C 156.624,281.582 158.79,281.749 161,280.5C 161.453,271.475 164.119,263.141 169,255.5C 175.533,245.294 183.2,235.961 192,227.5C 201.445,213.271 206.279,197.604 206.5,180.5 Z"/></g>
<g><path style="opacity:1" fill="#a5f185" d="M 528.5,229.5 C 529.257,239.482 529.59,249.482 529.5,259.5C 527.839,285.324 516.839,306.157 496.5,322C 490.44,323.066 489.106,321.066 492.5,316C 507.925,305.013 517.758,290.179 522,271.5C 523.554,259.883 523.887,248.216 523,236.5C 521.819,230.133 520.819,223.8 520,217.5C 522.267,216.065 524.267,216.398 526,218.5C 527.31,222.07 528.143,225.737 528.5,229.5 Z"/></g>
<g><path style="opacity:1" fill="#a5f185" d="M 278.5,230.5 C 279.257,240.482 279.59,250.482 279.5,260.5C 277.839,286.324 266.839,307.157 246.5,323C 240.44,324.066 239.106,322.066 242.5,317C 257.925,306.013 267.758,291.179 272,272.5C 273.554,260.883 273.887,249.216 273,237.5C 271.819,231.133 270.819,224.8 270,218.5C 272.267,217.065 274.267,217.398 276,219.5C 277.31,223.07 278.143,226.737 278.5,230.5 Z"/></g>
<g><path style="opacity:1" fill="#83be6c" d="M 528.5,229.5 C 530,235.26 530.667,241.26 530.5,247.5C 530.499,251.681 530.166,255.681 529.5,259.5C 529.59,249.482 529.257,239.482 528.5,229.5 Z"/></g>
<g><path style="opacity:1" fill="#83be6c" d="M 278.5,230.5 C 280,236.26 280.667,242.26 280.5,248.5C 280.499,252.681 280.166,256.681 279.5,260.5C 279.59,250.482 279.257,240.482 278.5,230.5 Z"/></g>
<g><path style="opacity:1" fill="#6a9659" d="M 406.5,267.5 C 406.719,268.675 406.386,269.675 405.5,270.5C 404.893,270.376 404.56,270.043 404.5,269.5C 405.167,268.833 405.833,268.167 406.5,267.5 Z"/></g>
<g><path style="opacity:1" fill="#6a9659" d="M 156.5,268.5 C 156.719,269.675 156.386,270.675 155.5,271.5C 154.893,271.376 154.56,271.043 154.5,270.5C 155.167,269.833 155.833,269.167 156.5,268.5 Z"/></g>
<g><path style="opacity:1" fill="#8dcd73" d="M 382.5,253.5 C 381.762,264.15 381.428,274.817 381.5,285.5C 380.834,281.347 380.501,277.013 380.5,272.5C 380.32,265.928 380.986,259.595 382.5,253.5 Z"/></g>
<g><path style="opacity:1" fill="#8dcd73" d="M 132.5,254.5 C 131.762,265.15 131.428,275.817 131.5,286.5C 130.834,282.347 130.501,278.013 130.5,273.5C 130.32,266.928 130.986,260.595 132.5,254.5 Z"/></g>
<g><path style="opacity:1" fill="#a3ee83" d="M 352.5,285.5 C 354.722,285.178 356.556,285.845 358,287.5C 364.034,300.873 373.034,311.873 385,320.5C 385.548,324.662 383.714,326.162 379.5,325C 366.911,315.255 357.577,303.088 351.5,288.5C 351.685,287.416 352.018,286.416 352.5,285.5 Z"/></g>
<g><path style="opacity:1" fill="#a3ee83" d="M 102.5,286.5 C 104.722,286.178 106.556,286.845 108,288.5C 114.034,301.873 123.034,312.873 135,321.5C 135.548,325.662 133.714,327.162 129.5,326C 116.911,316.255 107.577,304.088 101.5,289.5C 101.685,288.416 102.018,287.416 102.5,286.5 Z"/></g>
<g><path style="opacity:1" fill="#567949" d="M 403.5,333.5 C 404.043,333.56 404.376,333.893 404.5,334.5C 393.34,335.824 382.34,335.824 371.5,334.5C 382.346,334.828 393.013,334.494 403.5,333.5 Z"/></g>
<g><path style="opacity:1" fill="#567949" d="M 153.5,334.5 C 154.043,334.56 154.376,334.893 154.5,335.5C 143.34,336.824 132.34,336.824 121.5,335.5C 132.346,335.828 143.013,335.494 153.5,334.5 Z"/></g>
<g><path style="opacity:1" fill="#222322" d="M 480.5,342.5 C 495.833,343.167 511.167,343.833 526.5,344.5C 519.576,364.773 512.742,385.106 506,405.5C 501.857,413.644 495.357,418.811 486.5,421C 451.833,421.667 417.167,421.667 382.5,421C 373.301,418.47 366.468,412.97 362,404.5C 355.64,383.847 349.473,363.18 343.5,342.5C 389.156,342.215 434.823,342.215 480.5,342.5 Z"/></g>
<g><path style="opacity:1" fill="#455b3c" d="M 480.5,342.5 C 496.181,342.167 511.848,342.501 527.5,343.5C 527.376,344.107 527.043,344.44 526.5,344.5C 511.167,343.833 495.833,343.167 480.5,342.5 Z"/></g>
<g><path style="opacity:1" fill="#222322" d="M 230.5,343.5 C 245.833,344.167 261.167,344.833 276.5,345.5C 269.576,365.773 262.742,386.106 256,406.5C 251.857,414.644 245.357,419.811 236.5,422C 201.833,422.667 167.167,422.667 132.5,422C 123.301,419.47 116.468,413.97 112,405.5C 105.64,384.847 99.4734,364.18 93.5,343.5C 139.156,343.215 184.823,343.215 230.5,343.5 Z"/></g>
<g><path style="opacity:1" fill="#455b3c" d="M 230.5,343.5 C 246.181,343.167 261.848,343.501 277.5,344.5C 277.376,345.107 277.043,345.44 276.5,345.5C 261.167,344.833 245.833,344.167 230.5,343.5 Z"/></g>
<g><path style="opacity:1" fill="#a3ef84" d="M 504.5,367.5 C 507.571,366.925 509.571,368.091 510.5,371C 507.083,381.332 503.25,391.498 499,401.5C 492.205,410.149 483.372,414.316 472.5,414C 469.833,412 469.833,410 472.5,408C 483.645,407.688 491.478,402.521 496,392.5C 498.742,384.106 501.576,375.773 504.5,367.5 Z"/></g>
<g><path style="opacity:1" fill="#a3ef84" d="M 254.5,368.5 C 257.571,367.925 259.571,369.091 260.5,372C 257.083,382.332 253.25,392.498 249,402.5C 242.205,411.149 233.372,415.316 222.5,415C 219.833,413 219.833,411 222.5,409C 233.645,408.688 241.478,403.521 246,393.5C 248.742,385.106 251.576,376.773 254.5,368.5 Z"/></g>
<g><path style="opacity:1" fill="#a2ed83" d="M 445.5,407.5 C 451.176,407.334 456.843,407.501 462.5,408C 465.167,410 465.167,412 462.5,414C 456.833,414.667 451.167,414.667 445.5,414C 444.232,411.837 444.232,409.67 445.5,407.5 Z"/></g>
<g><path style="opacity:1" fill="#a2ed83" d="M 195.5,408.5 C 201.176,408.334 206.843,408.501 212.5,409C 215.167,411 215.167,413 212.5,415C 206.833,415.667 201.167,415.667 195.5,415C 194.232,412.837 194.232,410.67 195.5,408.5 Z"/></g>
<g><path style="opacity:1" fill="#77ab62" d="M 427.5,428.5 C 418.833,428.5 410.167,428.5 401.5,428.5C 401.5,429.833 401.5,431.167 401.5,432.5C 400.549,431.081 400.216,429.415 400.5,427.5C 409.682,427.173 418.682,427.507 427.5,428.5 Z"/></g>
<g><path style="opacity:1" fill="#77ab62" d="M 177.5,429.5 C 168.833,429.5 160.167,429.5 151.5,429.5C 151.5,430.833 151.5,432.167 151.5,433.5C 150.549,432.081 150.216,430.415 150.5,428.5C 159.682,428.173 168.682,428.507 177.5,429.5 Z"/></g>
<g><path style="opacity:1" fill="#384732" d="M 446.5,428.5 C 454.5,428.5 462.5,428.5 470.5,428.5C 470.5,429.833 470.5,431.167 470.5,432.5C 470.167,432.5 469.833,432.5 469.5,432.5C 469.5,431.5 469.5,430.5 469.5,429.5C 461.648,429.825 453.982,429.492 446.5,428.5 Z"/></g>
<g><path style="opacity:1" fill="#384732" d="M 196.5,429.5 C 204.5,429.5 212.5,429.5 220.5,429.5C 220.5,430.833 220.5,432.167 220.5,433.5C 220.167,433.5 219.833,433.5 219.5,433.5C 219.5,432.5 219.5,431.5 219.5,430.5C 211.648,430.825 203.982,430.492 196.5,429.5 Z"/></g>
<g><path style="opacity:1" fill="#82bb6a" d="M 219.5,433.5 C 219.833,433.5 220.167,433.5 220.5,433.5C 220.5,435.5 220.5,437.5 220.5,439.5C 280.833,439.5 341.167,439.5 401.5,439.5C 341.002,440.499 280.336,440.832 219.5,440.5C 219.5,438.167 219.5,435.833 219.5,433.5 Z"/></g>
<g><path style="opacity:1" fill="#82bb6a" d="M 469.5,432.5 C 469.833,432.5 470.167,432.5 470.5,432.5C 470.5,434.833 470.5,437.167 470.5,439.5C 511.167,439.5 551.833,439.5 592.5,439.5C 551.67,440.499 510.67,440.832 469.5,440.5C 469.5,437.833 469.5,435.167 469.5,432.5 Z"/></g>
<g><path style="opacity:1" fill="#a8a8a8" d="M 25.5,494.5 C 38.6562,493.504 51.9895,493.171 65.5,493.5C 65.5,496.833 65.5,500.167 65.5,503.5C 65.1667,503.5 64.8333,503.5 64.5,503.5C 64.5,500.5 64.5,497.5 64.5,494.5C 51.5,494.5 38.5,494.5 25.5,494.5 Z"/></g>
<g><path style="opacity:1" fill="#a0a1a0" d="M 78.5,494.5 C 80.9779,493.836 83.6445,493.503 86.5,493.5C 89.5902,493.522 92.2568,494.188 94.5,495.5C 89.2599,494.551 83.9265,494.218 78.5,494.5 Z"/></g>
<g><path style="opacity:1" fill="#f8f8f8" d="M 148.5,493.5 C 154.842,493.334 161.175,493.5 167.5,494C 170.759,495.211 173.592,497.044 176,499.5C 176.667,500.5 176.667,501.5 176,502.5C 173.982,504.35 172.149,506.35 170.5,508.5C 156.345,499.163 146.512,502.496 141,518.5C 138.871,543.557 149.704,552.557 173.5,545.5C 175.16,548.77 175.494,552.103 174.5,555.5C 162.387,560.196 150.72,559.363 139.5,553C 134.098,548.029 130.931,541.863 130,534.5C 126.764,520.263 130.264,508.096 140.5,498C 143.354,496.603 146.02,495.103 148.5,493.5 Z"/></g>
<g><path style="opacity:1" fill="#f8f8f8" d="M 305.5,493.5 C 311.509,493.334 317.509,493.501 323.5,494C 327.419,495.54 330.919,497.707 334,500.5C 333.107,503.436 331.274,505.936 328.5,508C 324.143,505.605 319.309,504.105 314,503.5C 307.065,503.359 304.398,506.692 306,513.5C 311.253,517.88 317.086,521.38 323.5,524C 333.823,529.815 336.989,538.315 333,549.5C 326.953,556.409 319.286,559.409 310,558.5C 304.308,558.535 298.808,557.535 293.5,555.5C 292.414,551.845 292.414,548.178 293.5,544.5C 299.239,546.148 305.072,547.482 311,548.5C 315.927,548.783 319.927,547.116 323,543.5C 323.93,540.15 323.097,537.317 320.5,535C 314.469,531.984 308.469,528.984 302.5,526C 295.221,520.164 292.721,512.664 295,503.5C 297.738,499.26 301.238,495.926 305.5,493.5 Z"/></g>
<g><path style="opacity:1" fill="#a9a9a9" d="M 387.5,494.5 C 374.5,494.5 361.5,494.5 348.5,494.5C 348.5,497.5 348.5,500.5 348.5,503.5C 348.167,503.5 347.833,503.5 347.5,503.5C 347.5,500.167 347.5,496.833 347.5,493.5C 361.01,493.171 374.344,493.504 387.5,494.5 Z"/></g>
<g><path style="opacity:1" fill="#929292" d="M 494.5,503.5 C 494.5,500.5 494.5,497.5 494.5,494.5C 481.5,494.5 468.5,494.5 455.5,494.5C 455.5,497.5 455.5,500.5 455.5,503.5C 454.521,500.375 454.187,497.042 454.5,493.5C 468.167,493.5 481.833,493.5 495.5,493.5C 495.813,497.042 495.479,500.375 494.5,503.5 Z"/></g>
<g><path style="opacity:1" fill="#999a99" d="M 552.5,494.5 C 536.833,494.5 521.167,494.5 505.5,494.5C 505.5,497.5 505.5,500.5 505.5,503.5C 511.69,503.177 517.69,503.51 523.5,504.5C 517.167,504.5 510.833,504.5 504.5,504.5C 504.5,500.833 504.5,497.167 504.5,493.5C 520.675,493.17 536.675,493.504 552.5,494.5 Z"/></g>
<g><path style="opacity:1" fill="#fbfbfb" d="M 25.5,494.5 C 38.5,494.5 51.5,494.5 64.5,494.5C 64.5,497.5 64.5,500.5 64.5,503.5C 59.8333,503.5 55.1667,503.5 50.5,503.5C 50.1707,518.343 50.504,533.01 51.5,547.5C 56.1667,547.5 60.8333,547.5 65.5,547.5C 65.5,550.833 65.5,554.167 65.5,557.5C 52.1667,557.5 38.8333,557.5 25.5,557.5C 25.5,554.167 25.5,550.833 25.5,547.5C 30.1667,547.5 34.8333,547.5 39.5,547.5C 39.5,532.833 39.5,518.167 39.5,503.5C 34.8333,503.5 30.1667,503.5 25.5,503.5C 25.5,500.5 25.5,497.5 25.5,494.5 Z"/></g>
<g><path style="opacity:1" fill="#f9f9f9" d="M 78.5,494.5 C 83.9265,494.218 89.2599,494.551 94.5,495.5C 98.7648,511.294 103.432,526.96 108.5,542.5C 109.499,526.18 109.833,509.847 109.5,493.5C 112.833,493.5 116.167,493.5 119.5,493.5C 119.5,514.833 119.5,536.167 119.5,557.5C 114.238,557.805 109.072,557.471 104,556.5C 99.6417,540.398 94.975,524.398 90,508.5C 89.5001,524.83 89.3334,541.163 89.5,557.5C 85.8333,557.5 82.1667,557.5 78.5,557.5C 78.5,536.5 78.5,515.5 78.5,494.5 Z"/></g>
<g><path style="opacity:1" fill="#fefefe" d="M 186.5,494.5 C 189.833,494.5 193.167,494.5 196.5,494.5C 196.17,512.341 196.503,530.008 197.5,547.5C 208.167,547.5 218.833,547.5 229.5,547.5C 229.5,550.833 229.5,554.167 229.5,557.5C 215.167,557.5 200.833,557.5 186.5,557.5C 186.5,536.5 186.5,515.5 186.5,494.5 Z"/></g>
<g><path style="opacity:1" fill="#bebebe" d="M 186.5,494.5 C 189.962,493.518 193.629,493.185 197.5,493.5C 197.5,511.5 197.5,529.5 197.5,547.5C 196.503,530.008 196.17,512.341 196.5,494.5C 193.167,494.5 189.833,494.5 186.5,494.5 Z"/></g>
<g><path style="opacity:1" fill="#fcfcfc" d="M 250.5,540.5 C 253.841,548.854 259.508,550.687 267.5,546C 268.126,545.25 268.626,544.416 269,543.5C 270.455,527.237 270.955,510.904 270.5,494.5C 273.833,494.5 277.167,494.5 280.5,494.5C 280.5,510.5 280.5,526.5 280.5,542.5C 278.212,553.768 271.212,559.101 259.5,558.5C 246.949,558.281 240.283,551.948 239.5,539.5C 239.5,524.5 239.5,509.5 239.5,494.5C 242.833,494.5 246.167,494.5 249.5,494.5C 249.17,510.009 249.504,525.342 250.5,540.5 Z"/></g>
<g><path style="opacity:1" fill="#fafafa" d="M 387.5,494.5 C 387.5,497.5 387.5,500.5 387.5,503.5C 382.833,503.5 378.167,503.5 373.5,503.5C 373.5,518.167 373.5,532.833 373.5,547.5C 378.167,547.5 382.833,547.5 387.5,547.5C 387.5,550.833 387.5,554.167 387.5,557.5C 374.167,557.5 360.833,557.5 347.5,557.5C 347.5,554.167 347.5,550.833 347.5,547.5C 352.167,547.5 356.833,547.5 361.5,547.5C 362.496,533.01 362.829,518.343 362.5,503.5C 357.833,503.5 353.167,503.5 348.5,503.5C 348.5,500.5 348.5,497.5 348.5,494.5C 361.5,494.5 374.5,494.5 387.5,494.5 Z"/></g>
<g><path style="opacity:1" fill="#f8f8f8" d="M 396.5,493.5 C 400.167,493.5 403.833,493.5 407.5,493.5C 411.991,511.463 416.491,529.463 421,547.5C 426.128,529.991 430.795,512.324 435,494.5C 438.73,493.54 442.563,493.207 446.5,493.5C 441.035,514.56 435.369,535.56 429.5,556.5C 423.872,557.495 418.206,557.829 412.5,557.5C 407.171,536.183 401.837,514.849 396.5,493.5 Z"/></g>
<g><path style="opacity:1" fill="#fefefe" d="M 494.5,503.5 C 489.833,503.5 485.167,503.5 480.5,503.5C 480.5,518.167 480.5,532.833 480.5,547.5C 485.167,547.5 489.833,547.5 494.5,547.5C 494.5,550.833 494.5,554.167 494.5,557.5C 481.5,557.5 468.5,557.5 455.5,557.5C 455.5,554.167 455.5,550.833 455.5,547.5C 460.167,547.5 464.833,547.5 469.5,547.5C 469.5,532.833 469.5,518.167 469.5,503.5C 464.833,503.5 460.167,503.5 455.5,503.5C 455.5,500.5 455.5,497.5 455.5,494.5C 468.5,494.5 481.5,494.5 494.5,494.5C 494.5,497.5 494.5,500.5 494.5,503.5 Z"/></g>
<g><path style="opacity:1" fill="#fefffe" d="M 552.5,494.5 C 552.5,497.5 552.5,500.5 552.5,503.5C 546.167,503.5 539.833,503.5 533.5,503.5C 533.5,521.5 533.5,539.5 533.5,557.5C 530.167,557.5 526.833,557.5 523.5,557.5C 523.5,539.833 523.5,522.167 523.5,504.5C 517.69,503.51 511.69,503.177 505.5,503.5C 505.5,500.5 505.5,497.5 505.5,494.5C 521.167,494.5 536.833,494.5 552.5,494.5 Z"/></g>
<g><path style="opacity:1" fill="#f4f4f4" d="M 556.5,493.5 C 560.555,493.176 564.555,493.509 568.5,494.5C 572.91,504.32 577.577,513.986 582.5,523.5C 587.423,513.986 592.09,504.32 596.5,494.5C 600.5,493.167 604.5,493.167 608.5,494.5C 602,507.5 595.5,520.5 589,533.5C 588.5,541.493 588.334,549.493 588.5,557.5C 584.5,557.5 580.5,557.5 576.5,557.5C 576.666,549.826 576.5,542.159 576,534.5C 569.013,521.023 562.513,507.356 556.5,493.5 Z"/></g>
<g><path style="opacity:1" fill="#575857" d="M 64.5,503.5 C 64.8333,503.5 65.1667,503.5 65.5,503.5C 61.03,504.486 56.3633,504.819 51.5,504.5C 51.5,518.833 51.5,533.167 51.5,547.5C 50.504,533.01 50.1707,518.343 50.5,503.5C 55.1667,503.5 59.8333,503.5 64.5,503.5 Z"/></g>
<g><path style="opacity:1" fill="#6c6c6c" d="M 347.5,503.5 C 347.833,503.5 348.167,503.5 348.5,503.5C 353.167,503.5 357.833,503.5 362.5,503.5C 362.829,518.343 362.496,533.01 361.5,547.5C 361.5,533.167 361.5,518.833 361.5,504.5C 356.637,504.819 351.97,504.486 347.5,503.5 Z"/></g>
<g><path style="opacity:1" fill="#b8b8b8" d="M 552.5,503.5 C 546.69,504.49 540.69,504.823 534.5,504.5C 534.83,522.341 534.497,540.008 533.5,557.5C 533.5,539.5 533.5,521.5 533.5,503.5C 539.833,503.5 546.167,503.5 552.5,503.5 Z"/></g>
<g><path style="opacity:1" fill="#838483" d="M 250.5,540.5 C 249.504,525.342 249.17,510.009 249.5,494.5C 246.167,494.5 242.833,494.5 239.5,494.5C 239.5,509.5 239.5,524.5 239.5,539.5C 238.504,524.342 238.17,509.009 238.5,493.5C 242.5,493.5 246.5,493.5 250.5,493.5C 250.5,509.167 250.5,524.833 250.5,540.5 Z"/></g>
<g><path style="opacity:1" fill="#cccccc" d="M 270.5,494.5 C 273.962,493.518 277.629,493.185 281.5,493.5C 281.83,510.009 281.496,526.342 280.5,542.5C 280.5,526.5 280.5,510.5 280.5,494.5C 277.167,494.5 273.833,494.5 270.5,494.5 Z"/></g>
</svg>
