<?xml version="1.0" encoding="UTF-8"?>
<!DOCTYPE svg PUBLIC "-//W3C//DTD SVG 1.1//EN" "http://www.w3.org/Graphics/SVG/1.1/DTD/svg11.dtd">
<svg xmlns="http://www.w3.org/2000/svg" version="1.1" width="625px" height="625px" style="shape-rendering:geometricPrecision; text-rendering:geometricPrecision; image-rendering:optimizeQuality; fill-rule:evenodd; clip-rule:evenodd" xmlns:xlink="http://www.w3.org/1999/xlink">
<g><path style="opacity:0.995" fill="#222322" d="M 21.5,-0.5 C 214.167,-0.5 406.833,-0.5 599.5,-0.5C 609.26,7.10371 617.093,16.437 623,27.5C 623.667,216.833 623.667,406.167 623,595.5C 615.026,607.143 604.859,616.31 592.5,623C 404.5,623.667 216.5,623.667 28.5,623C 17.151,616.817 7.48433,608.65 -0.5,598.5C -0.5,406.833 -0.5,215.167 -0.5,23.5C 2.64542,19.2341 5.81209,14.9008 9,10.5C 13.3327,6.93363 17.4994,3.26697 21.5,-0.5 Z"/></g>
<g><path style="opacity:1" fill="#91cb00" d="M 419.5,436.5 C 408.5,437.167 397.5,437.833 386.5,438.5C 386.167,438.5 385.833,438.5 385.5,438.5C 325.491,439.163 265.824,438.496 206.5,436.5C 240.324,392.197 274.158,347.863 308,303.5C 308.667,302.167 308.667,300.833 308,299.5C 302.916,293.644 298.083,287.644 293.5,281.5C 252.623,333.548 212.29,386.048 172.5,439C 124.836,438.899 77.1698,438.566 29.5,438C 28.6667,437.167 27.8333,436.333 27,435.5C 26.2086,306.83 26.542,178.164 28,49.5C 31.3437,38.8229 38.177,31.3229 48.5,27C 222.502,26.2099 396.502,26.5432 570.5,28C 584.288,32.1136 591.788,41.2803 593,55.5C 594.412,182.164 594.745,308.831 594,435.5C 593.167,436.333 592.333,437.167 591.5,438C 545.5,438.667 499.5,438.667 453.5,438C 376.303,337.77 299.47,237.27 223,136.5C 222,135.5 221,134.5 220,133.5C 217.789,138.298 216.289,143.298 215.5,148.5C 210.686,148.22 206.02,148.886 201.5,150.5C 274.176,245.863 346.842,341.197 419.5,436.5 Z"/></g>
<g><path style="opacity:1" fill="#242621" d="M 161.5,57.5 C 164.72,60.9126 167.72,64.5793 170.5,68.5C 166.284,69.9869 161.951,71.1536 157.5,72C 155.858,76.5972 154.024,81.0972 152,85.5C 148.683,82.1945 145.849,78.5278 143.5,74.5C 149.52,68.8117 155.52,63.1451 161.5,57.5 Z"/></g>
<g><path style="opacity:1" fill="#252721" d="M 463.5,58.5 C 470.117,63.7801 476.45,69.4468 482.5,75.5C 479.858,79.3094 477.025,82.9761 474,86.5C 471.779,81.8393 469.945,77.0059 468.5,72C 464.117,71.3979 459.784,70.5646 455.5,69.5C 457.931,65.6267 460.598,61.9601 463.5,58.5 Z"/></g>
<g><path style="opacity:1" fill="#222321" d="M 183.5,73.5 C 187.182,73.3347 190.848,73.5014 194.5,74C 203,85.1667 211.5,96.3333 220,107.5C 217.654,119.22 214.82,130.887 211.5,142.5C 200.124,144.007 188.791,145.84 177.5,148C 155.893,172.287 150.726,199.787 162,230.5C 163.579,233.994 165.413,237.327 167.5,240.5C 167,240.833 166.5,241.167 166,241.5C 141.295,232.829 120.295,218.496 103,198.5C 85.7177,177.269 73.7177,153.269 67,126.5C 65.4597,119.896 64.793,113.229 65,106.5C 80.1804,124.008 99.3471,130.841 122.5,127C 133.191,124.405 142.691,119.571 151,112.5C 154.351,100.757 157.851,89.0902 161.5,77.5C 169.086,76.8092 176.42,75.4759 183.5,73.5 Z"/></g>
<g><path style="opacity:1" fill="#222321" d="M 431.5,73.5 C 442.625,74.4319 453.625,76.0986 464.5,78.5C 468.303,89.7417 471.803,101.075 475,112.5C 497.547,131.065 521.713,133.231 547.5,119C 552.653,115.512 557.153,111.346 561,106.5C 556.166,155.289 534.333,194.456 495.5,224C 484.55,231.558 472.717,237.392 460,241.5C 459.5,241.167 459,240.833 458.5,240.5C 469.325,223.199 472.492,204.532 468,184.5C 464.78,170.558 458.28,158.391 448.5,148C 437.173,146.057 425.84,144.223 414.5,142.5C 411.039,131.657 408.039,120.657 405.5,109.5C 405.719,108.062 406.219,106.729 407,105.5C 415.766,95.2418 423.932,84.5751 431.5,73.5 Z"/></g>
<g><path style="opacity:1" fill="#232421" d="M 404.5,134.5 C 405.496,134.414 406.329,134.748 407,135.5C 408.179,139.698 409.346,143.865 410.5,148C 415.2,148.671 419.866,149.504 424.5,150.5C 394.243,190.68 363.743,230.68 333,270.5C 328,264.167 323,257.833 318,251.5C 317.333,250.5 317.333,249.5 318,248.5C 347.458,210.889 376.291,172.889 404.5,134.5 Z"/></g>
<g><path style="opacity:1" fill="#749f0d" d="M 419.5,436.5 C 420.289,436.783 420.956,437.283 421.5,438C 409.838,438.5 398.171,438.667 386.5,438.5C 397.5,437.833 408.5,437.167 419.5,436.5 Z"/></g>
<g><path style="opacity:1" fill="#6f980a" d="M 206.5,436.5 C 265.824,438.496 325.491,439.163 385.5,438.5C 325.335,439.665 265.001,439.832 204.5,439C 205.066,438.005 205.733,437.172 206.5,436.5 Z"/></g>
<g><path style="opacity:1" fill="#a6a6a6" d="M 131.5,495.5 C 126.405,495.221 121.405,495.555 116.5,496.5C 118.571,495.191 121.071,494.525 124,494.5C 126.69,494.503 129.19,494.836 131.5,495.5 Z"/></g>
<g><path style="opacity:1" fill="#f9f9f9" d="M 189.5,536.5 C 186.038,535.518 182.371,535.185 178.5,535.5C 178.5,532.5 178.5,529.5 178.5,526.5C 185.833,526.5 193.167,526.5 200.5,526.5C 200.819,536.749 200.486,546.916 199.5,557C 187.484,560.987 175.818,560.321 164.5,555C 156.412,546.912 152.745,537.079 153.5,525.5C 154.701,501.137 167.368,490.97 191.5,495C 195.498,496.337 198.832,498.67 201.5,502C 199.689,504.978 197.356,507.478 194.5,509.5C 187.746,503.953 180.413,503.12 172.5,507C 165.376,514.048 162.876,522.548 165,532.5C 167.302,545.743 175.135,551.243 188.5,549C 189.464,544.934 189.797,540.767 189.5,536.5 Z"/></g>
<g><path style="opacity:1" fill="#f7f7f7" d="M 223.5,494.5 C 241.423,491.368 251.923,498.701 255,516.5C 257.378,530.083 254.878,542.583 247.5,554C 238.247,560.465 228.58,561.132 218.5,556C 213.716,552.275 210.549,547.441 209,541.5C 206.673,530.398 207.007,519.398 210,508.5C 212.713,501.956 217.213,497.289 223.5,494.5 Z"/></g>
<g><path style="opacity:1" fill="#f8f8f8" d="M 384.5,494.5 C 401.858,491.418 412.358,498.418 416,515.5C 417.256,526.403 416.256,537.07 413,547.5C 406.956,557.433 398.123,561.266 386.5,559C 377.593,556.425 372.093,550.592 370,541.5C 368.123,531.819 368.123,522.152 370,512.5C 371.79,503.892 376.624,497.892 384.5,494.5 Z"/></g>
<g><path style="opacity:1" fill="#909190" d="M 519.5,504.5 C 519.5,501.5 519.5,498.5 519.5,495.5C 506.5,495.5 493.5,495.5 480.5,495.5C 480.5,498.5 480.5,501.5 480.5,504.5C 479.521,501.375 479.187,498.042 479.5,494.5C 493.167,494.5 506.833,494.5 520.5,494.5C 520.813,498.042 520.479,501.375 519.5,504.5 Z"/></g>
<g><path style="opacity:1" fill="#d1d1d1" d="M 64.5,495.5 C 59.5,495.5 54.5,495.5 49.5,495.5C 49.5,516.5 49.5,537.5 49.5,558.5C 48.5027,537.34 48.1694,516.007 48.5,494.5C 54.0262,494.179 59.3595,494.512 64.5,495.5 Z"/></g>
<g><path style="opacity:1" fill="#f7f7f7" d="M 64.5,495.5 C 66.5175,504.085 68.3508,512.752 70,521.5C 72.2789,513.273 74.1122,504.94 75.5,496.5C 80.7401,495.551 86.0735,495.218 91.5,495.5C 91.5,516.5 91.5,537.5 91.5,558.5C 88.1667,558.5 84.8333,558.5 81.5,558.5C 81.6666,541.163 81.4999,523.83 81,506.5C 78.5113,515.77 76.3446,525.103 74.5,534.5C 71.5,534.5 68.5,534.5 65.5,534.5C 63.9905,525.119 62.1572,515.786 60,506.5C 59.5001,523.83 59.3334,541.163 59.5,558.5C 56.1667,558.5 52.8333,558.5 49.5,558.5C 49.5,537.5 49.5,516.5 49.5,495.5C 54.5,495.5 59.5,495.5 64.5,495.5 Z"/></g>
<g><path style="opacity:1" fill="#949594" d="M 91.5,558.5 C 91.5,537.5 91.5,516.5 91.5,495.5C 86.0735,495.218 80.7401,495.551 75.5,496.5C 80.7351,494.55 86.4018,493.883 92.5,494.5C 92.8306,516.007 92.4973,537.34 91.5,558.5 Z"/></g>
<g><path style="opacity:1" fill="#f9f9f9" d="M 131.5,495.5 C 137.293,516.213 143.293,536.88 149.5,557.5C 145.555,558.491 141.555,558.824 137.5,558.5C 136.968,554.039 135.968,549.706 134.5,545.5C 127.468,545.17 120.468,545.503 113.5,546.5C 112.373,550.135 111.373,553.802 110.5,557.5C 106.5,558.833 102.5,558.833 98.5,557.5C 104.661,537.183 110.661,516.85 116.5,496.5C 121.405,495.555 126.405,495.221 131.5,495.5 Z"/></g>
<g><path style="opacity:1" fill="#989998" d="M 287.5,495.5 C 280.167,495.5 272.833,495.5 265.5,495.5C 265.5,516.5 265.5,537.5 265.5,558.5C 264.503,537.34 264.169,516.007 264.5,494.5C 272.352,494.175 280.018,494.508 287.5,495.5 Z"/></g>
<g><path style="opacity:1" fill="#fcfcfc" d="M 287.5,495.5 C 306.067,497.931 312.567,508.265 307,526.5C 302.537,535.822 295.037,540.156 284.5,539.5C 281.5,539.5 278.5,539.5 275.5,539.5C 275.5,545.833 275.5,552.167 275.5,558.5C 272.167,558.5 268.833,558.5 265.5,558.5C 265.5,537.5 265.5,516.5 265.5,495.5C 272.833,495.5 280.167,495.5 287.5,495.5 Z"/></g>
<g><path style="opacity:1" fill="#c6c6c6" d="M 328.5,495.5 C 325.167,495.5 321.833,495.5 318.5,495.5C 318.5,516.5 318.5,537.5 318.5,558.5C 317.503,537.34 317.169,516.007 317.5,494.5C 321.371,494.185 325.038,494.518 328.5,495.5 Z"/></g>
<g><path style="opacity:1" fill="#fefffe" d="M 328.5,495.5 C 328.5,504.167 328.5,512.833 328.5,521.5C 335.313,522.491 342.313,522.825 349.5,522.5C 349.5,513.5 349.5,504.5 349.5,495.5C 352.833,495.5 356.167,495.5 359.5,495.5C 359.5,516.5 359.5,537.5 359.5,558.5C 356.167,558.5 352.833,558.5 349.5,558.5C 349.5,549.5 349.5,540.5 349.5,531.5C 342.313,531.175 335.313,531.509 328.5,532.5C 328.5,541.167 328.5,549.833 328.5,558.5C 325.167,558.5 321.833,558.5 318.5,558.5C 318.5,537.5 318.5,516.5 318.5,495.5C 321.833,495.5 325.167,495.5 328.5,495.5 Z"/></g>
<g><path style="opacity:1" fill="#959695" d="M 359.5,558.5 C 359.5,537.5 359.5,516.5 359.5,495.5C 356.167,495.5 352.833,495.5 349.5,495.5C 349.5,504.5 349.5,513.5 349.5,522.5C 342.313,522.825 335.313,522.491 328.5,521.5C 335.167,521.5 341.833,521.5 348.5,521.5C 348.5,512.5 348.5,503.5 348.5,494.5C 352.5,494.5 356.5,494.5 360.5,494.5C 360.831,516.007 360.497,537.34 359.5,558.5 Z"/></g>
<g><path style="opacity:1" fill="#808080" d="M 450.5,495.5 C 442.5,495.5 434.5,495.5 426.5,495.5C 426.5,516.5 426.5,537.5 426.5,558.5C 425.503,537.34 425.169,516.007 425.5,494.5C 434.017,494.174 442.35,494.507 450.5,495.5 Z"/></g>
<g><path style="opacity:1" fill="#f9f9f9" d="M 450.5,495.5 C 464.322,497.819 468.822,505.485 464,518.5C 460.468,521.85 456.301,524.016 451.5,525C 467.785,525.742 473.618,533.909 469,549.5C 466.067,554.722 461.567,557.555 455.5,558C 445.839,558.5 436.172,558.666 426.5,558.5C 426.5,537.5 426.5,516.5 426.5,495.5C 434.5,495.5 442.5,495.5 450.5,495.5 Z"/></g>
<g><path style="opacity:1" fill="#fefefe" d="M 519.5,504.5 C 514.833,504.5 510.167,504.5 505.5,504.5C 505.5,519.167 505.5,533.833 505.5,548.5C 510.167,548.5 514.833,548.5 519.5,548.5C 519.5,551.833 519.5,555.167 519.5,558.5C 506.5,558.5 493.5,558.5 480.5,558.5C 480.5,555.167 480.5,551.833 480.5,548.5C 485.167,548.5 489.833,548.5 494.5,548.5C 494.5,533.833 494.5,519.167 494.5,504.5C 489.833,504.5 485.167,504.5 480.5,504.5C 480.5,501.5 480.5,498.5 480.5,495.5C 493.5,495.5 506.5,495.5 519.5,495.5C 519.5,498.5 519.5,501.5 519.5,504.5 Z"/></g>
<g><path style="opacity:1" fill="#f8f8f8" d="M 546.5,494.5 C 551.43,494.197 556.263,494.531 561,495.5C 567.35,516.38 573.183,537.38 578.5,558.5C 574.833,558.5 571.167,558.5 567.5,558.5C 566.344,554.207 565.344,549.874 564.5,545.5C 557.492,545.334 550.492,545.5 543.5,546C 541.639,549.944 540.639,554.111 540.5,558.5C 536.5,558.5 532.5,558.5 528.5,558.5C 534.297,537.109 540.297,515.776 546.5,494.5 Z"/></g>
<g><path style="opacity:1" fill="#232423" d="M 227.5,504.5 C 236.594,503.428 241.761,507.428 243,516.5C 243.87,524.897 243.537,533.23 242,541.5C 239.189,547.823 234.355,550.323 227.5,549C 223.133,546.445 220.633,542.612 220,537.5C 218.896,528.011 219.562,518.677 222,509.5C 223.73,507.598 225.563,505.931 227.5,504.5 Z"/></g>
<g><path style="opacity:1" fill="#252625" d="M 388.5,504.5 C 398.369,503.86 403.869,508.527 405,518.5C 406.856,528.796 405.023,538.296 399.5,547C 389.599,551.475 383.433,548.308 381,537.5C 379.855,527.995 380.522,518.662 383,509.5C 384.73,507.598 386.563,505.931 388.5,504.5 Z"/></g>
<g><path style="opacity:1" fill="#232423" d="M 287.5,505.5 C 296.997,508.165 299.83,514.165 296,523.5C 294.52,526.663 292.02,528.496 288.5,529C 284.514,529.499 280.514,529.666 276.5,529.5C 276.5,521.5 276.5,513.5 276.5,505.5C 280.167,505.5 283.833,505.5 287.5,505.5 Z"/></g>
<g><path style="opacity:1" fill="#8d8e8d" d="M 447.5,505.5 C 444.167,505.5 440.833,505.5 437.5,505.5C 437.5,510.167 437.5,514.833 437.5,519.5C 436.513,514.695 436.179,509.695 436.5,504.5C 440.371,504.185 444.038,504.518 447.5,505.5 Z"/></g>
<g><path style="opacity:1" fill="#232423" d="M 447.5,505.5 C 454.104,506.334 456.271,510.001 454,516.5C 453.097,517.701 451.931,518.535 450.5,519C 446.179,519.499 441.846,519.666 437.5,519.5C 437.5,514.833 437.5,510.167 437.5,505.5C 440.833,505.5 444.167,505.5 447.5,505.5 Z"/></g>
<g><path style="opacity:1" fill="#282928" d="M 131.5,534.5 C 126.381,535.103 121.715,534.436 117.5,532.5C 119.347,524.106 121.513,515.772 124,507.5C 126.968,516.374 129.468,525.374 131.5,534.5 Z"/></g>
<g><path style="opacity:1" fill="#282928" d="M 560.5,533.5 C 556.03,534.486 551.363,534.819 546.5,534.5C 548.234,525.225 550.734,516.225 554,507.5C 556.473,516.106 558.64,524.773 560.5,533.5 Z"/></g>
<g><path style="opacity:1" fill="#737473" d="M 287.5,505.5 C 283.833,505.5 280.167,505.5 276.5,505.5C 276.5,513.5 276.5,521.5 276.5,529.5C 275.507,521.35 275.174,513.017 275.5,504.5C 279.702,504.183 283.702,504.517 287.5,505.5 Z"/></g>
<g><path style="opacity:1" fill="#818281" d="M 200.5,526.5 C 193.167,526.5 185.833,526.5 178.5,526.5C 178.5,529.5 178.5,532.5 178.5,535.5C 182.371,535.185 186.038,535.518 189.5,536.5C 185.5,536.5 181.5,536.5 177.5,536.5C 177.5,532.833 177.5,529.167 177.5,525.5C 185.352,525.175 193.018,525.508 200.5,526.5 Z"/></g>
<g><path style="opacity:1" fill="#232423" d="M 437.5,530.5 C 442.844,530.334 448.177,530.501 453.5,531C 460.778,535.355 461.445,540.688 455.5,547C 449.577,548.304 443.577,548.804 437.5,548.5C 437.5,542.5 437.5,536.5 437.5,530.5 Z"/></g>
<g><path style="opacity:1" fill="#797a79" d="M 328.5,532.5 C 335.313,531.509 342.313,531.175 349.5,531.5C 349.5,540.5 349.5,549.5 349.5,558.5C 348.507,550.016 348.174,541.349 348.5,532.5C 341.833,532.5 335.167,532.5 328.5,532.5 Z"/></g>
<g><path style="opacity:1" fill="#848484" d="M 117.5,532.5 C 121.715,534.436 126.381,535.103 131.5,534.5C 126.695,535.487 121.695,535.821 116.5,535.5C 116.263,534.209 116.596,533.209 117.5,532.5 Z"/></g>
<g><path style="opacity:1" fill="#8a8a8a" d="M 560.5,533.5 C 561.043,533.56 561.376,533.893 561.5,534.5C 556.348,535.814 551.348,535.814 546.5,534.5C 551.363,534.819 556.03,534.486 560.5,533.5 Z"/></g>
<g><path style="opacity:1" fill="#6b6c6b" d="M 284.5,539.5 C 282.052,540.473 279.385,540.806 276.5,540.5C 276.823,546.69 276.49,552.69 275.5,558.5C 275.5,552.167 275.5,545.833 275.5,539.5C 278.5,539.5 281.5,539.5 284.5,539.5 Z"/></g>
</svg>
