<?xml version="1.0" encoding="UTF-8"?>
<!DOCTYPE svg PUBLIC "-//W3C//DTD SVG 1.1//EN" "http://www.w3.org/Graphics/SVG/1.1/DTD/svg11.dtd">
<svg xmlns="http://www.w3.org/2000/svg" version="1.1" width="625px" height="625px" style="shape-rendering:geometricPrecision; text-rendering:geometricPrecision; image-rendering:optimizeQuality; fill-rule:evenodd; clip-rule:evenodd" xmlns:xlink="http://www.w3.org/1999/xlink">
<g><path style="opacity:0.997" fill="#222322" d="M 21.5,-0.5 C 214.167,-0.5 406.833,-0.5 599.5,-0.5C 609.26,7.10371 617.093,16.437 623,27.5C 623.667,216.833 623.667,406.167 623,595.5C 615.026,607.143 604.859,616.31 592.5,623C 404.5,623.667 216.5,623.667 28.5,623C 17.151,616.817 7.48433,608.65 -0.5,598.5C -0.5,406.833 -0.5,215.167 -0.5,23.5C 2.64542,19.2341 5.81209,14.9008 9,10.5C 13.3327,6.93363 17.4994,3.26697 21.5,-0.5 Z"/></g>
<g><path style="opacity:1" fill="#0f1225" d="M 47.5,24.5 C 222.169,24.2089 396.836,24.7089 571.5,26C 581.755,29.2507 589.255,35.7507 594,45.5C 594.333,48.5 594.667,51.5 595,54.5C 596.414,181.831 596.747,309.164 596,436.5C 594.833,437.667 593.667,438.833 592.5,440C 527.145,440.827 464.478,440.66 404.5,439.5C 404.351,438.448 404.517,437.448 405,436.5C 406.487,435.845 407.653,434.845 408.5,433.5C 401.765,427.101 395.765,420.101 390.5,412.5C 389.548,410.955 389.215,409.288 389.5,407.5C 394.515,409.671 398.515,413.171 401.5,418C 410.943,422.569 419.776,421.403 428,414.5C 428.333,414.833 428.667,415.167 429,415.5C 429.475,412.094 431.142,409.427 434,407.5C 434.667,405.5 434.667,403.5 434,401.5C 427.873,398.065 421.707,394.565 415.5,391C 412.175,388.763 410.009,385.929 409,382.5C 410.388,381.446 411.888,381.28 413.5,382C 418.44,384.814 423.44,387.481 428.5,390C 431.419,391.14 434.419,391.973 437.5,392.5C 442.144,391.512 446.144,389.512 449.5,386.5C 449.929,382.976 451.429,379.976 454,377.5C 454.749,376.365 454.583,375.365 453.5,374.5C 447.162,372.33 440.829,370.164 434.5,368C 431.789,365.656 428.956,363.489 426,361.5C 425.517,360.552 425.351,359.552 425.5,358.5C 433.108,362.05 441.108,364.716 449.5,366.5C 452.263,365.95 454.93,365.117 457.5,364C 459.678,361.323 462.011,358.823 464.5,356.5C 466.405,352.69 467.739,348.69 468.5,344.5C 460.134,343.264 451.801,341.931 443.5,340.5C 443.5,339.5 443.5,338.5 443.5,337.5C 441.473,337.662 439.473,337.495 437.5,337C 436.663,335.989 436.33,334.822 436.5,333.5C 446.283,336.372 456.283,337.206 466.5,336C 469.266,334.533 471.766,332.7 474,330.5C 476.837,323.983 479.671,317.483 482.5,311C 480.597,307.986 478.263,307.32 475.5,309C 461.765,309.777 448.098,309.11 434.5,307C 430.905,306.878 429.239,305.044 429.5,301.5C 438.244,301.843 446.911,302.843 455.5,304.5C 464.105,303.249 472.438,301.249 480.5,298.5C 481.76,293.729 483.093,288.896 484.5,284C 484.999,280.51 485.332,277.01 485.5,273.5C 478.313,275.214 470.98,276.381 463.5,277C 461.956,277.29 460.623,277.956 459.5,279C 452.316,279.297 445.15,279.797 438,280.5C 436.833,280.167 435.667,279.833 434.5,279.5C 435.824,278.065 437.49,277.065 439.5,276.5C 445.102,275.266 450.769,274.433 456.5,274C 462.074,271.712 467.741,269.712 473.5,268C 480.219,260.569 483.885,251.903 484.5,242C 483.422,241.326 482.755,240.326 482.5,239C 483.167,237.333 483.833,235.667 484.5,234C 484.167,233.167 483.833,232.333 483.5,231.5C 470.272,238.946 456.938,246.113 443.5,253C 440.173,253.61 436.839,254.11 433.5,254.5C 433.281,253.325 433.614,252.325 434.5,251.5C 447.454,244.966 460.454,238.633 473.5,232.5C 477.5,226.837 479.166,220.504 478.5,213.5C 479.143,201.453 476.81,190.12 471.5,179.5C 470.635,178.417 469.635,178.251 468.5,179C 456.699,191.968 444.365,204.468 431.5,216.5C 428.15,219.011 424.483,220.677 420.5,221.5C 420.351,220.448 420.517,219.448 421,218.5C 427.014,213.484 432.681,208.151 438,202.5C 439,200.833 440,199.167 441,197.5C 447.36,191.14 453.694,184.806 460,178.5C 461.872,176.622 463.372,174.455 464.5,172C 463.77,168.206 463.27,164.373 463,160.5C 457.964,152.343 454.131,143.677 451.5,134.5C 447.716,130.223 444.55,125.556 442,120.5C 440.989,119.663 439.822,119.33 438.5,119.5C 438.649,122.607 438.149,125.607 437,128.5C 433.184,134.561 429.851,140.894 427,147.5C 423.372,153.773 419.038,159.439 414,164.5C 409.217,175.241 403.05,185.074 395.5,194C 394.552,194.483 393.552,194.649 392.5,194.5C 392.481,190.648 393.314,186.981 395,183.5C 397.71,179.368 400.044,175.034 402,170.5C 405.385,166.783 408.385,162.783 411,158.5C 412.376,152.744 415.043,147.744 419,143.5C 422.384,134.573 425.884,125.74 429.5,117C 420.597,103.301 412.264,89.1338 404.5,74.5C 403.184,71.972 402.017,71.972 401,74.5C 397.96,94.6196 392.293,113.953 384,132.5C 383.145,140.65 380.478,147.984 376,154.5C 376.244,157.367 375.911,160.367 375,163.5C 373.473,165.221 372.473,167.221 372,169.5C 370.989,170.337 369.822,170.67 368.5,170.5C 370.091,158.814 373.257,147.48 378,136.5C 378.667,131.833 379.333,127.167 380,122.5C 381,121.167 382,119.833 383,118.5C 384.136,112.775 385.636,107.275 387.5,102C 386.978,101.439 386.645,100.772 386.5,100C 389.466,87.7631 390.299,75.2631 389,62.5C 382.572,56.0846 375.072,51.2512 366.5,48C 363.459,44.983 360.126,42.3163 356.5,40C 355.551,39.3828 354.718,39.5494 354,40.5C 354.418,45.4645 354.418,50.4645 354,55.5C 350.163,87.5102 346.329,119.51 342.5,151.5C 341.167,151.5 339.833,151.5 338.5,151.5C 338.8,162.373 338.466,173.206 337.5,184C 339.28,198.366 340.113,212.866 340,227.5C 342.807,229.593 345.64,231.593 348.5,233.5C 352.575,230.851 354.575,232.185 354.5,237.5C 356.857,237.337 359.19,237.503 361.5,238C 362.352,240.362 363.852,242.195 366,243.5C 366.49,244.793 366.657,246.127 366.5,247.5C 368.167,247.5 369.833,247.5 371.5,247.5C 372.459,253.211 374.126,258.711 376.5,264C 375.729,269.072 374.395,273.905 372.5,278.5C 371.127,278.343 369.793,278.51 368.5,279C 364.821,286.369 359.154,291.035 351.5,293C 349.415,296.335 347.748,299.835 346.5,303.5C 344.519,304.348 342.519,304.848 340.5,305C 337.045,300.589 333.711,296.089 330.5,291.5C 330.709,290.914 331.043,290.414 331.5,290C 334.226,289.818 336.893,289.318 339.5,288.5C 337.109,287.018 334.776,285.351 332.5,283.5C 331.447,282.562 330.78,281.395 330.5,280C 335.031,277.484 339.031,274.15 342.5,270C 342.167,269.5 341.833,269 341.5,268.5C 337.902,271.135 333.902,271.968 329.5,271C 328.483,269.951 328.316,268.784 329,267.5C 330.351,265.981 331.851,264.648 333.5,263.5C 329.555,262.509 325.555,262.176 321.5,262.5C 322.403,260.391 323.237,258.391 324,256.5C 320.066,255.968 316.566,254.468 313.5,252C 315.35,249.982 317.35,248.149 319.5,246.5C 318,246.167 316.5,245.833 315,245.5C 311.356,246.789 307.689,248.122 304,249.5C 303.167,249.167 302.333,248.833 301.5,248.5C 302.645,247.109 302.645,245.776 301.5,244.5C 298.282,245.743 295.448,247.409 293,249.5C 290.033,248.026 287.199,246.36 284.5,244.5C 282.182,244.997 279.848,245.33 277.5,245.5C 275.549,248.466 274.216,251.8 273.5,255.5C 274.833,255.5 276.167,255.5 277.5,255.5C 277.238,256.978 277.571,258.311 278.5,259.5C 282.056,260.862 285.222,262.862 288,265.5C 289.8,270.64 292.467,275.307 296,279.5C 296.167,281.333 296.333,283.167 296.5,285C 296.634,293.833 293.467,301 287,306.5C 283.428,304.64 281.428,301.64 281,297.5C 276.746,294.24 272.246,291.407 267.5,289C 265.235,283.734 261.402,280.234 256,278.5C 252.275,268.084 253.109,258.084 258.5,248.5C 262.101,246.8 264.601,244.133 266,240.5C 270.897,239.28 275.064,236.78 278.5,233C 279.784,232.316 280.951,232.483 282,233.5C 284.803,231.698 286.969,229.365 288.5,226.5C 291.021,201.823 291.355,177.156 289.5,152.5C 288.167,152.5 286.833,152.5 285.5,152.5C 284.609,132.167 281.776,112.167 277,92.5C 276.547,74.4807 275.714,56.4807 274.5,38.5C 268.126,45.0425 260.793,50.2091 252.5,54C 247.516,58.6413 243.016,63.4746 239,68.5C 238.765,74.0747 238.598,79.5747 238.5,85C 240.209,96.6503 242.376,108.15 245,119.5C 250.169,131.008 254.169,143.008 257,155.5C 257.92,158.938 259.587,161.938 262,164.5C 262.494,166.134 262.66,167.801 262.5,169.5C 260.61,169.703 259.11,169.037 258,167.5C 252.75,156.749 248.083,145.749 244,134.5C 240.12,118.132 235.787,101.799 231,85.5C 230.501,81.8484 230.335,78.1817 230.5,74.5C 223.561,75.606 219.394,79.606 218,86.5C 212.816,91.5279 209.149,97.5279 207,104.5C 203.427,107.603 201.26,111.436 200.5,116C 203.709,122.261 206.376,128.928 208.5,136C 212.904,142.643 216.404,149.809 219,157.5C 222.428,161.42 224.928,165.92 226.5,171C 227.009,172.169 227.842,173.002 229,173.5C 230.996,179.483 233.496,185.15 236.5,190.5C 236.167,191.5 235.833,192.5 235.5,193.5C 230.658,187.849 226.824,181.516 224,174.5C 213.792,160.053 204.125,145.386 195,130.5C 193.936,126.808 192.77,123.142 191.5,119.5C 182.637,131.238 174.803,143.571 168,156.5C 167.004,160.474 166.171,164.474 165.5,168.5C 166.194,171.088 167.36,173.421 169,175.5C 175.808,181.703 182.475,188.036 189,194.5C 189.483,195.448 189.649,196.448 189.5,197.5C 190.552,197.351 191.552,197.517 192.5,198C 197.011,203.511 202.178,208.344 208,212.5C 208.167,212.833 208.333,213.167 208.5,213.5C 206.579,214.641 204.579,214.808 202.5,214C 187.37,203.952 173.704,192.285 161.5,179C 160.5,178.333 159.5,178.333 158.5,179C 153.202,191.359 150.035,204.193 149,217.5C 150.541,221.012 152.374,224.345 154.5,227.5C 167.441,235.137 180.774,241.97 194.5,248C 195.38,249.356 195.714,250.856 195.5,252.5C 189.067,252.734 183.734,250.567 179.5,246C 168.336,242.841 157.836,238.341 148,232.5C 147.586,232.957 147.086,233.291 146.5,233.5C 145.624,243.828 145.79,254.161 147,264.5C 147.309,265.766 147.809,266.933 148.5,268C 157.774,270.535 167.108,272.869 176.5,275C 182.196,275.17 187.862,275.67 193.5,276.5C 191.167,276.833 188.833,277.167 186.5,277.5C 173.501,276.742 160.501,276.076 147.5,275.5C 147.861,284.089 150.861,291.589 156.5,298C 171.338,301 186.338,302.834 201.5,303.5C 201.64,305.124 200.973,306.29 199.5,307C 184.645,307.207 169.812,307.707 155,308.5C 153.774,308.355 152.607,308.022 151.5,307.5C 151.167,308 150.833,308.5 150.5,309C 152.49,317.3 155.824,324.967 160.5,332C 162.455,332.953 164.122,334.287 165.5,336C 171.5,336.333 177.5,336.667 183.5,337C 178.225,342.091 171.892,344.591 164.5,344.5C 164.605,348.319 165.438,351.986 167,355.5C 169.723,357.934 172.223,360.601 174.5,363.5C 176.833,363.833 179.167,364.167 181.5,364.5C 189.262,363.152 196.929,361.485 204.5,359.5C 204.548,362.292 203.215,364.125 200.5,365C 193.966,367.423 187.299,369.423 180.5,371C 179.572,371.388 178.905,372.055 178.5,373C 182.494,378.996 186.494,384.996 190.5,391C 194.182,391.222 197.848,390.889 201.5,390C 207.49,387.447 213.657,385.28 220,383.5C 221.404,383.509 222.57,384.009 223.5,385C 214.8,390.337 206.133,395.671 197.5,401C 201.432,405.623 205.099,410.457 208.5,415.5C 210.167,416.5 211.833,417.5 213.5,418.5C 220.314,415.836 226.814,412.502 233,408.5C 235.12,407.541 237.287,407.374 239.5,408C 237.823,409.995 236.323,412.161 235,414.5C 229.351,418.982 224.184,423.982 219.5,429.5C 221.297,431.131 222.464,433.131 223,435.5C 225.124,436.622 226.957,438.122 228.5,440C 161.833,440.667 95.1667,440.667 28.5,440C 27.3333,438.833 26.1667,437.667 25,436.5C 24.2072,307.164 24.5406,177.83 26,48.5C 29.873,37.4648 37.0396,29.4648 47.5,24.5 Z"/></g>
<g><path style="opacity:1" fill="#0f1225" d="M 278.5,405.5 C 283.688,407.833 287.022,411.833 288.5,417.5C 286.383,421.677 284.716,426.01 283.5,430.5C 280.053,433.045 277.386,436.212 275.5,440C 267.479,440.832 259.479,440.665 251.5,439.5C 260.685,428.21 269.685,416.877 278.5,405.5 Z"/></g>
<g><path style="opacity:1" fill="#0f1225" d="M 352.5,405.5 C 353.978,405.238 355.311,405.571 356.5,406.5C 364.208,415.736 370.875,425.402 376.5,435.5C 377.5,435.5 378.5,435.5 379.5,435.5C 379.297,437.39 379.963,438.89 381.5,440C 372.167,440.667 362.833,440.667 353.5,440C 351.12,436.742 348.62,433.576 346,430.5C 344.306,428.43 344.139,426.264 345.5,424C 342.713,421.824 341.879,418.991 343,415.5C 344.883,414.347 345.716,412.681 345.5,410.5C 348.819,410.176 351.152,408.509 352.5,405.5 Z"/></g>
<g><path style="opacity:1" fill="#d5d5d5" d="M 78.5,492.5 C 70.1667,492.5 61.8333,492.5 53.5,492.5C 53.5,511.5 53.5,530.5 53.5,549.5C 52.503,530.341 52.1697,511.007 52.5,491.5C 61.3494,491.174 70.0161,491.507 78.5,492.5 Z"/></g>
<g><path style="opacity:1" fill="#f6f6f6" d="M 217.5,490.5 C 224.196,489.849 230.529,491.015 236.5,494C 237.833,495.333 239.167,496.667 240.5,498C 239.024,500.643 237.024,502.81 234.5,504.5C 225.354,498.296 217.187,499.296 210,507.5C 206.485,516.634 206.819,525.634 211,534.5C 212.873,536.709 215.04,538.542 217.5,540C 224.163,540.956 230.663,540.456 237,538.5C 237.837,541.365 238.67,544.198 239.5,547C 229.986,551.153 220.319,551.486 210.5,548C 204.096,544.254 199.929,538.754 198,531.5C 197.095,523.089 197.428,514.755 199,506.5C 202.6,498.058 208.767,492.724 217.5,490.5 Z"/></g>
<g><path style="opacity:1" fill="#c9cac9" d="M 333.5,500.5 C 333.5,497.833 333.5,495.167 333.5,492.5C 321.833,492.5 310.167,492.5 298.5,492.5C 298.5,495.167 298.5,497.833 298.5,500.5C 297.523,497.713 297.19,494.713 297.5,491.5C 309.833,491.5 322.167,491.5 334.5,491.5C 334.81,494.713 334.477,497.713 333.5,500.5 Z"/></g>
<g><path style="opacity:1" fill="#f7f7f7" d="M 359.5,490.5 C 373.963,489.137 382.796,495.47 386,509.5C 386.876,518.23 386.542,526.896 385,535.5C 380.638,547.413 372.138,552.247 359.5,550C 350.371,547.2 345.204,541.034 344,531.5C 343.333,523.833 343.333,516.167 344,508.5C 345.848,499.495 351.015,493.495 359.5,490.5 Z"/></g>
<g><path style="opacity:1" fill="#bebebe" d="M 409.5,493.5 C 404.93,492.559 400.263,492.226 395.5,492.5C 395.5,511.5 395.5,530.5 395.5,549.5C 394.503,530.341 394.17,511.007 394.5,491.5C 399.944,490.892 404.944,491.558 409.5,493.5 Z"/></g>
<g><path style="opacity:1" fill="#f7f7f7" d="M 536.5,491.5 C 540.226,491.177 543.893,491.511 547.5,492.5C 551.667,501.5 555.833,510.5 560,519.5C 564.449,510.662 568.616,501.662 572.5,492.5C 576.459,491.34 580.459,491.173 584.5,492C 578.206,504.089 572.039,516.255 566,528.5C 565.5,535.492 565.334,542.492 565.5,549.5C 562.167,549.5 558.833,549.5 555.5,549.5C 555.666,542.825 555.5,536.158 555,529.5C 548.55,516.934 542.383,504.267 536.5,491.5 Z"/></g>
<g><path style="opacity:1" fill="#fafafa" d="M 78.5,492.5 C 89.8363,495.488 94.3363,502.822 92,514.5C 90.3813,519.42 87.548,523.42 83.5,526.5C 87.3106,533.954 90.9773,541.454 94.5,549C 90.4589,549.827 86.4589,549.66 82.5,548.5C 79.6667,542.167 76.8333,535.833 74,529.5C 70.27,528.54 66.4367,528.207 62.5,528.5C 62.5,535.5 62.5,542.5 62.5,549.5C 59.5,549.5 56.5,549.5 53.5,549.5C 53.5,530.5 53.5,511.5 53.5,492.5C 61.8333,492.5 70.1667,492.5 78.5,492.5 Z"/></g>
<g><path style="opacity:1" fill="#fdfdfd" d="M 112.5,515.5 C 119.313,516.491 126.313,516.825 133.5,516.5C 133.5,519.167 133.5,521.833 133.5,524.5C 126.313,524.175 119.313,524.509 112.5,525.5C 112.5,530.5 112.5,535.5 112.5,540.5C 122.167,540.5 131.833,540.5 141.5,540.5C 141.5,543.5 141.5,546.5 141.5,549.5C 128.5,549.5 115.5,549.5 102.5,549.5C 102.5,530.167 102.5,510.833 102.5,491.5C 115.5,491.5 128.5,491.5 141.5,491.5C 141.5,494.5 141.5,497.5 141.5,500.5C 131.833,500.5 122.167,500.5 112.5,500.5C 112.5,505.5 112.5,510.5 112.5,515.5 Z"/></g>
<g><path style="opacity:1" fill="#f9f9f9" d="M 162.5,491.5 C 167.167,491.5 171.833,491.5 176.5,491.5C 181.833,510.833 187.167,530.167 192.5,549.5C 188.833,549.5 185.167,549.5 181.5,549.5C 181.152,545.443 180.486,541.443 179.5,537.5C 172.833,537.5 166.167,537.5 159.5,537.5C 158.962,541.524 158.295,545.524 157.5,549.5C 153.774,549.823 150.107,549.489 146.5,548.5C 152.246,529.597 157.58,510.597 162.5,491.5 Z"/></g>
<g><path style="opacity:1" fill="#f9f9f9" d="M 262.5,549.5 C 262.5,533.167 262.5,516.833 262.5,500.5C 256.833,500.5 251.167,500.5 245.5,500.5C 245.5,497.5 245.5,494.5 245.5,491.5C 259.833,491.5 274.167,491.5 288.5,491.5C 288.5,494.5 288.5,497.5 288.5,500.5C 283.167,500.5 277.833,500.5 272.5,500.5C 272.5,516.833 272.5,533.167 272.5,549.5C 269.167,549.5 265.833,549.5 262.5,549.5 Z"/></g>
<g><path style="opacity:1" fill="#f8f8f8" d="M 333.5,500.5 C 329.5,500.5 325.5,500.5 321.5,500.5C 321.5,513.833 321.5,527.167 321.5,540.5C 325.833,540.5 330.167,540.5 334.5,540.5C 334.5,543.5 334.5,546.5 334.5,549.5C 322.167,549.5 309.833,549.5 297.5,549.5C 297.5,546.5 297.5,543.5 297.5,540.5C 302.167,540.5 306.833,540.5 311.5,540.5C 311.5,527.167 311.5,513.833 311.5,500.5C 307.167,500.5 302.833,500.5 298.5,500.5C 298.5,497.833 298.5,495.167 298.5,492.5C 310.167,492.5 321.833,492.5 333.5,492.5C 333.5,495.167 333.5,497.833 333.5,500.5 Z"/></g>
<g><path style="opacity:1" fill="#f9faf9" d="M 395.5,549.5 C 395.5,530.5 395.5,511.5 395.5,492.5C 400.263,492.226 404.93,492.559 409.5,493.5C 413.815,507.753 417.981,522.087 422,536.5C 422.5,521.504 422.667,506.504 422.5,491.5C 425.833,491.5 429.167,491.5 432.5,491.5C 432.5,510.833 432.5,530.167 432.5,549.5C 427.786,549.827 423.12,549.493 418.5,548.5C 414.573,535.217 410.74,521.884 407,508.5C 406.581,507.328 405.915,506.328 405,505.5C 404.5,520.163 404.333,534.83 404.5,549.5C 401.5,549.5 398.5,549.5 395.5,549.5 Z"/></g>
<g><path style="opacity:1" fill="#f8f8f8" d="M 455.5,491.5 C 460.167,491.5 464.833,491.5 469.5,491.5C 474.63,510.891 479.964,530.224 485.5,549.5C 481.833,549.5 478.167,549.5 474.5,549.5C 473.833,545.5 473.167,541.5 472.5,537.5C 465.833,537.5 459.167,537.5 452.5,537.5C 451.962,541.524 451.295,545.524 450.5,549.5C 446.774,549.823 443.107,549.489 439.5,548.5C 445.246,529.597 450.58,510.597 455.5,491.5 Z"/></g>
<g><path style="opacity:1" fill="#f7f7f7" d="M 492.5,491.5 C 500.84,491.334 509.173,491.5 517.5,492C 529.265,495.018 533.765,502.518 531,514.5C 530.64,516.608 529.973,518.608 529,520.5C 526.778,522.385 524.944,524.551 523.5,527C 526.97,534.107 530.303,541.273 533.5,548.5C 529.555,549.491 525.555,549.824 521.5,549.5C 519.406,542.64 516.74,535.973 513.5,529.5C 509.893,528.511 506.226,528.177 502.5,528.5C 502.5,535.5 502.5,542.5 502.5,549.5C 499.167,549.5 495.833,549.5 492.5,549.5C 492.5,530.167 492.5,510.833 492.5,491.5 Z"/></g>
<g><path style="opacity:1" fill="#252625" d="M 360.5,500.5 C 370.036,499.531 375.202,503.864 376,513.5C 377.454,522.56 375.954,531.06 371.5,539C 366.182,542.695 361.349,542.195 357,537.5C 352.894,526.928 352.561,516.262 356,505.5C 357.366,503.638 358.866,501.972 360.5,500.5 Z"/></g>
<g><path style="opacity:1" fill="#262726" d="M 62.5,500.5 C 68.6803,499.829 74.5136,500.829 80,503.5C 81.5039,507.039 81.8372,510.705 81,514.5C 80.5,516.333 79.3333,517.5 77.5,518C 72.5111,518.499 67.5111,518.666 62.5,518.5C 62.5,512.5 62.5,506.5 62.5,500.5 Z"/></g>
<g><path style="opacity:1" fill="#505150" d="M 245.5,500.5 C 251.167,500.5 256.833,500.5 262.5,500.5C 262.5,516.833 262.5,533.167 262.5,549.5C 261.504,533.675 261.17,517.675 261.5,501.5C 255.974,501.821 250.64,501.488 245.5,500.5 Z"/></g>
<g><path style="opacity:1" fill="#262726" d="M 502.5,500.5 C 507.599,500.175 512.599,500.675 517.5,502C 522.472,506.61 522.806,511.61 518.5,517C 513.292,518.397 507.959,518.897 502.5,518.5C 502.5,512.5 502.5,506.5 502.5,500.5 Z"/></g>
<g><path style="opacity:1" fill="#292a29" d="M 175.5,525.5 C 173.952,526.794 171.952,527.461 169.5,527.5C 167.304,527.495 165.304,527.162 163.5,526.5C 164.717,518.632 166.717,510.966 169.5,503.5C 172.121,510.65 174.121,517.984 175.5,525.5 Z"/></g>
<g><path style="opacity:1" fill="#292a29" d="M 468.5,525.5 C 466.952,526.794 464.952,527.461 462.5,527.5C 460.304,527.495 458.304,527.162 456.5,526.5C 457.721,518.616 459.721,510.95 462.5,503.5C 465.121,510.65 467.121,517.984 468.5,525.5 Z"/></g>
<g><path style="opacity:1" fill="#aeaeae" d="M 112.5,515.5 C 119.833,515.5 127.167,515.5 134.5,515.5C 134.5,518.833 134.5,522.167 134.5,525.5C 127.167,525.5 119.833,525.5 112.5,525.5C 119.313,524.509 126.313,524.175 133.5,524.5C 133.5,521.833 133.5,519.167 133.5,516.5C 126.313,516.825 119.313,516.491 112.5,515.5 Z"/></g>
<g><path style="opacity:1" fill="#6d6e6d" d="M 175.5,525.5 C 176.404,526.209 176.737,527.209 176.5,528.5C 171.786,528.827 167.12,528.493 162.5,527.5C 162.624,526.893 162.957,526.56 163.5,526.5C 165.304,527.162 167.304,527.495 169.5,527.5C 171.952,527.461 173.952,526.794 175.5,525.5 Z"/></g>
<g><path style="opacity:1" fill="#6c6d6c" d="M 468.5,525.5 C 469.404,526.209 469.737,527.209 469.5,528.5C 464.786,528.827 460.12,528.493 455.5,527.5C 455.624,526.893 455.957,526.56 456.5,526.5C 458.304,527.162 460.304,527.495 462.5,527.5C 464.952,527.461 466.952,526.794 468.5,525.5 Z"/></g>
</svg>
