<?xml version="1.0" encoding="UTF-8"?>
<!DOCTYPE svg PUBLIC "-//W3C//DTD SVG 1.1//EN" "http://www.w3.org/Graphics/SVG/1.1/DTD/svg11.dtd">
<svg xmlns="http://www.w3.org/2000/svg" version="1.1" width="625px" height="625px" style="shape-rendering:geometricPrecision; text-rendering:geometricPrecision; image-rendering:optimizeQuality; fill-rule:evenodd; clip-rule:evenodd" xmlns:xlink="http://www.w3.org/1999/xlink">
<g><path style="opacity:0.996" fill="#222322" d="M 21.5,-0.5 C 214.167,-0.5 406.833,-0.5 599.5,-0.5C 609.26,7.10371 617.093,16.437 623,27.5C 623.667,216.833 623.667,406.167 623,595.5C 615.026,607.143 604.859,616.31 592.5,623C 404.5,623.667 216.5,623.667 28.5,623C 17.151,616.817 7.48433,608.65 -0.5,598.5C -0.5,406.833 -0.5,215.167 -0.5,23.5C 2.64542,19.2341 5.81209,14.9008 9,10.5C 13.3327,6.93363 17.4994,3.26697 21.5,-0.5 Z"/></g>
<g><path style="opacity:1" fill="#ee2727" d="M 592.5,438.5 C 578.167,438.5 563.833,438.5 549.5,438.5C 554.231,436.929 558.898,435.762 563.5,435C 567.56,433.428 571.226,431.261 574.5,428.5C 568.801,428.026 563.135,428.692 557.5,430.5C 541.924,431.147 527.59,426.981 514.5,418C 507.458,410.291 499.792,403.291 491.5,397C 476.989,389.538 461.655,384.538 445.5,382C 462.732,369.551 481.899,365.385 503,369.5C 512.756,375.565 514.256,374.232 507.5,365.5C 508,365.167 508.5,364.833 509,364.5C 533.855,370.825 555.688,364.992 574.5,347C 573.234,346.691 572.067,346.191 571,345.5C 557.527,352.618 543.194,356.285 528,356.5C 522.937,354.478 517.77,352.645 512.5,351C 504.362,345.098 495.362,341.098 485.5,339C 475.012,337.736 464.512,337.236 454,337.5C 449.245,337.879 444.578,338.545 440,339.5C 446.975,328.216 456.809,320.05 469.5,315C 479.627,310.749 489.96,309.583 500.5,311.5C 500.67,310.178 500.337,309.011 499.5,308C 486.662,299.881 473.662,299.547 460.5,307C 451.218,313.281 442.218,319.948 433.5,327C 428.775,328.792 424.275,330.959 420,333.5C 418.455,335.209 417.622,337.209 417.5,339.5C 419.333,346.832 421.666,353.999 424.5,361C 426.167,361.667 427.833,361.667 429.5,361C 442.719,354.08 456.552,349.913 471,348.5C 476.823,349.99 482.323,352.157 487.5,355C 485.468,356.804 483.301,357.304 481,356.5C 471.425,357.972 462.425,360.972 454,365.5C 453.667,365.167 453.333,364.833 453,364.5C 444.208,368.323 435.041,370.49 425.5,371C 423.357,373.758 422.19,376.924 422,380.5C 421.333,386.167 421.333,391.833 422,397.5C 422.576,399.852 424.076,400.852 426.5,400.5C 457.924,393.031 483.924,401.865 504.5,427C 512.835,433.337 522.169,437.17 532.5,438.5C 521.5,438.5 510.5,438.5 499.5,438.5C 499.894,435.143 498.561,432.81 495.5,431.5C 492.167,431.5 488.833,431.5 485.5,431.5C 481.823,430.36 478.156,429.36 474.5,428.5C 473.446,428.68 472.446,429.013 471.5,429.5C 465.338,428.646 459.171,427.646 453,426.5C 443.55,425.978 434.05,425.978 424.5,426.5C 417.064,424.465 409.564,424.132 402,425.5C 395.976,424.199 389.809,423.199 383.5,422.5C 415.85,385.653 417.684,347.653 389,308.5C 370.416,288.463 348.916,277.463 324.5,275.5C 289.651,273.385 261.484,287.051 240,316.5C 237.412,320.674 235.079,325.007 233,329.5C 229.782,336.902 227.615,344.402 226.5,352C 226.558,359.014 226.558,366.014 226.5,373C 227.896,375.013 228.229,377.013 227.5,379C 229.118,385.98 231.284,392.48 234,398.5C 239.341,407.183 245.174,415.516 251.5,423.5C 242.008,424.951 232.508,425.285 223,424.5C 215.4,426.561 207.733,426.894 200,425.5C 194.052,427.257 188.052,427.59 182,426.5C 178.135,428.54 174.135,428.874 170,427.5C 168.072,427.933 166.239,428.6 164.5,429.5C 161.557,427.906 158.89,428.239 156.5,430.5C 153.799,429.131 151.299,429.464 149,431.5C 146.597,430.503 144.264,430.836 142,432.5C 136.298,431.208 134.464,433.374 136.5,439C 100.5,439.667 64.5,439.667 28.5,439C 27.6667,438.167 26.8333,437.333 26,436.5C 25.2072,307.164 25.5406,177.83 27,48.5C 30.3437,37.8229 37.177,30.3229 47.5,26C 222.169,25.2089 396.836,25.5422 571.5,27C 585.288,31.1136 592.788,40.2803 594,54.5C 595.414,181.831 595.747,309.164 595,436.5C 594.292,437.381 593.458,438.047 592.5,438.5 Z"/></g>
<g><path style="opacity:1" fill="#212321" d="M 281.5,100.5 C 294.672,110.14 302.839,123.14 306,139.5C 308.91,157.361 305.41,173.861 295.5,189C 295.385,194.429 294.385,199.929 292.5,205.5C 293.323,213.268 294.656,221.101 296.5,229C 299.621,238.239 303.288,247.239 307.5,256C 307.415,257.107 307.081,258.107 306.5,259C 301.549,260.357 296.549,261.524 291.5,262.5C 288.728,261.974 286.062,261.141 283.5,260C 279.376,254.923 275.876,249.423 273,243.5C 262.119,233.463 252.953,222.13 245.5,209.5C 244.658,219.137 246.825,228.137 252,236.5C 259.062,246.145 266.229,255.645 273.5,265C 270.196,268.633 266.529,271.966 262.5,275C 260.152,276.84 257.485,278.007 254.5,278.5C 252.203,277.351 249.87,276.185 247.5,275C 235.853,265.843 223.853,257.177 211.5,249C 198.131,238.104 194.131,224.938 199.5,209.5C 206.935,234.278 222.935,249.611 247.5,255.5C 237.133,238.567 231.133,220.4 229.5,201C 234.711,181.189 231.544,162.689 220,145.5C 214.646,139.647 209.48,133.647 204.5,127.5C 204.808,126.692 205.308,126.025 206,125.5C 232.728,140.28 245.895,162.613 245.5,192.5C 247.269,189.294 248.769,185.961 250,182.5C 250.941,180.939 252.108,179.605 253.5,178.5C 252.659,204.487 262.826,225.153 284,240.5C 284.054,236.477 283.554,232.477 282.5,228.5C 282.608,227.558 282.941,226.725 283.5,226C 282.084,223.373 281.417,220.54 281.5,217.5C 282.465,209.835 282.632,202.168 282,194.5C 282.222,188.098 284.055,182.265 287.5,177C 287.167,176.667 286.833,176.333 286.5,176C 294.863,162.543 297.863,148.21 295.5,133C 291.886,121.639 287.219,110.805 281.5,100.5 Z"/></g>
<g><path style="opacity:1" fill="#212321" d="M 371.5,107.5 C 373.335,108.122 374.502,109.456 375,111.5C 382.525,133.187 380.858,153.853 370,173.5C 363.706,181.462 357.04,189.129 350,196.5C 345.337,203.826 341.837,211.66 339.5,220C 339.572,229.132 339.572,238.298 339.5,247.5C 341.593,251.342 341.927,255.342 340.5,259.5C 337.753,260.105 335.087,260.438 332.5,260.5C 330.235,260.06 328.068,259.394 326,258.5C 322.551,259.61 319.051,259.61 315.5,258.5C 314.752,252.102 313.585,245.769 312,239.5C 308.015,227.888 304.348,216.555 301,205.5C 298.22,193.564 300.72,182.897 308.5,173.5C 310.858,171.976 312.691,169.976 314,167.5C 314.667,168.833 315.333,168.833 316,167.5C 307.161,191.459 309.828,214.126 324,235.5C 327.092,215.54 334.092,197.207 345,180.5C 351.366,174.469 357.366,168.136 363,161.5C 366.002,155.003 368.836,148.503 371.5,142C 371.808,130.405 371.808,118.905 371.5,107.5 Z"/></g>
<g><path style="opacity:1" fill="#212321" d="M 448.5,136.5 C 452.707,156.651 448.874,174.984 437,191.5C 433.833,194.667 430.667,197.833 427.5,201C 419.167,206 410.833,211 402.5,216C 394.279,222.604 388.113,230.771 384,240.5C 380.582,251.026 377.415,261.526 374.5,272C 367.028,271.845 360.028,269.845 353.5,266C 351.993,264.527 351.326,262.693 351.5,260.5C 351.931,255.841 352.931,251.341 354.5,247C 353.147,233.93 352.48,220.93 352.5,208C 354.811,192.859 363.145,182.692 377.5,177.5C 377.833,177.833 378.167,178.167 378.5,178.5C 361.979,198.835 357.812,221.501 366,246.5C 374.05,229.106 385.216,213.939 399.5,201C 406.5,197.333 413.5,193.667 420.5,190C 429.266,183.234 435.766,174.734 440,164.5C 443.172,155.117 446.005,145.783 448.5,136.5 Z"/></g>
<g><path style="opacity:1" fill="#212321" d="M 134.5,175.5 C 161.26,177.658 180.426,191.325 192,216.5C 196.139,249.127 213.472,271.46 244,283.5C 244.273,285.101 244.773,286.601 245.5,288C 240.877,294.292 235.877,300.292 230.5,306C 229.234,306.309 228.067,306.809 227,307.5C 222.629,305.731 218.462,303.564 214.5,301C 201.756,297.414 189.422,293.747 177.5,290C 171.432,286.601 165.932,282.435 161,277.5C 165.173,288.688 172.673,297.188 183.5,303C 195.511,307.269 207.844,310.269 220.5,312C 221.316,313.923 221.983,315.923 222.5,318C 221.369,324.742 218.702,330.742 214.5,336C 208.923,335.678 203.423,335.511 198,335.5C 191.291,336.22 184.625,337.22 178,338.5C 176.893,338.415 175.893,338.081 175,337.5C 173.006,338.664 170.839,339.331 168.5,339.5C 161.825,339.226 155.158,339.059 148.5,339C 150.809,341.487 153.476,343.487 156.5,345C 163.454,346.744 170.454,348.244 177.5,349.5C 185.452,348.114 193.452,346.947 201.5,346C 205.167,345.333 208.833,345.333 212.5,346C 213.3,354.485 212.8,362.985 211,371.5C 204.117,372.722 197.45,374.722 191,377.5C 190.667,377.167 190.333,376.833 190,376.5C 177.677,384.844 164.511,390.177 150.5,392.5C 139.355,391.678 130.189,387.011 123,378.5C 122.333,377.833 122.333,377.167 123,376.5C 136.156,382.054 149.656,382.887 163.5,379C 172.587,374.956 181.254,370.122 189.5,364.5C 186.225,363.763 183.058,362.763 180,361.5C 162.025,360.985 145.859,355.818 131.5,346C 111.932,325.12 88.432,319.287 61,328.5C 59.8525,327.542 58.8525,327.875 58,329.5C 57.3828,328.551 57.5494,327.718 58.5,327C 76.896,314.909 96.5627,312.242 117.5,319C 125.199,322.709 132.366,327.209 139,332.5C 136.22,326.819 133.054,321.152 129.5,315.5C 130,315.167 130.5,314.833 131,314.5C 151.197,330.115 173.364,333.448 197.5,324.5C 184.272,318.111 171.938,310.278 160.5,301C 156.215,296.26 152.048,291.427 148,286.5C 138.766,264.006 122.266,251.339 98.5,248.5C 95.5252,247.861 92.5252,247.361 89.5,247C 88.0267,246.29 87.3601,245.124 87.5,243.5C 118.554,238.2 142.221,248.867 158.5,275.5C 158.833,274.667 159.167,273.833 159.5,273C 158.066,268.198 156.733,263.364 155.5,258.5C 155.833,257.833 156.167,257.167 156.5,256.5C 163.738,265.239 172.071,272.739 181.5,279C 192.803,285.496 204.803,288.163 217.5,287C 202.483,273.745 191.316,258.245 184,240.5C 182.033,228.298 178.366,216.632 173,205.5C 163.455,192.47 150.955,183.47 135.5,178.5C 134.614,177.675 134.281,176.675 134.5,175.5 Z"/></g>
<g><path style="opacity:1" fill="#212321" d="M 510.5,193.5 C 511.5,193.5 512.5,193.5 513.5,193.5C 510.96,213.862 500.96,229.362 483.5,240C 477.931,243.08 472.264,245.913 466.5,248.5C 466.709,249.086 467.043,249.586 467.5,250C 469.833,250.333 472.167,250.667 474.5,251C 475.833,252 475.833,253 474.5,254C 449.397,259.774 433.564,274.941 427,299.5C 445.496,288.88 464.829,283.88 485,284.5C 488.885,284.865 492.551,285.865 496,287.5C 502.333,287.5 508.667,287.5 515,287.5C 529.325,281.511 542.325,273.511 554,263.5C 554.5,263.833 555,264.167 555.5,264.5C 545.276,283.357 529.776,295.357 509,300.5C 502.131,300.979 495.298,300.312 488.5,298.5C 478.155,299.078 467.822,299.911 457.5,301C 453.271,302.115 449.271,303.781 445.5,306C 436.309,313.358 426.976,320.525 417.5,327.5C 414.856,324.891 412.689,321.891 411,318.5C 409.034,314.52 407.034,310.52 405,306.5C 404.333,305.5 404.333,304.5 405,303.5C 415.973,290.882 425.973,277.549 435,263.5C 438.167,260.333 441.333,257.167 444.5,254C 437.845,254.99 431.845,257.657 426.5,262C 416.061,271.265 407.727,282.099 401.5,294.5C 401,294.833 400.5,295.167 400,295.5C 392.229,291.397 386.062,285.563 381.5,278C 389.174,265.164 394.341,251.33 397,236.5C 401.616,220.382 412.116,210.716 428.5,207.5C 430.5,208 432.5,208.5 434.5,209C 412.085,222.316 400.918,242.149 401,268.5C 414.005,254.82 429.172,244.32 446.5,237C 477.136,236.182 498.47,221.682 510.5,193.5 Z"/></g>
<g><path style="opacity:1" fill="#212321" d="M 549.5,438.5 C 543.833,437.167 538.167,437.167 532.5,438.5C 522.169,437.17 512.835,433.337 504.5,427C 483.924,401.865 457.924,393.031 426.5,400.5C 424.076,400.852 422.576,399.852 422,397.5C 421.333,391.833 421.333,386.167 422,380.5C 422.19,376.924 423.357,373.758 425.5,371C 435.041,370.49 444.208,368.323 453,364.5C 453.333,364.833 453.667,365.167 454,365.5C 462.425,360.972 471.425,357.972 481,356.5C 483.301,357.304 485.468,356.804 487.5,355C 482.323,352.157 476.823,349.99 471,348.5C 456.552,349.913 442.719,354.08 429.5,361C 427.833,361.667 426.167,361.667 424.5,361C 421.666,353.999 419.333,346.832 417.5,339.5C 417.622,337.209 418.455,335.209 420,333.5C 424.275,330.959 428.775,328.792 433.5,327C 442.218,319.948 451.218,313.281 460.5,307C 473.662,299.547 486.662,299.881 499.5,308C 500.337,309.011 500.67,310.178 500.5,311.5C 489.96,309.583 479.627,310.749 469.5,315C 456.809,320.05 446.975,328.216 440,339.5C 444.578,338.545 449.245,337.879 454,337.5C 464.512,337.236 475.012,337.736 485.5,339C 495.362,341.098 504.362,345.098 512.5,351C 517.77,352.645 522.937,354.478 528,356.5C 543.194,356.285 557.527,352.618 571,345.5C 572.067,346.191 573.234,346.691 574.5,347C 555.688,364.992 533.855,370.825 509,364.5C 508.5,364.833 508,365.167 507.5,365.5C 514.256,374.232 512.756,375.565 503,369.5C 481.899,365.385 462.732,369.551 445.5,382C 461.655,384.538 476.989,389.538 491.5,397C 499.792,403.291 507.458,410.291 514.5,418C 527.59,426.981 541.924,431.147 557.5,430.5C 563.135,428.692 568.801,428.026 574.5,428.5C 571.226,431.261 567.56,433.428 563.5,435C 558.898,435.762 554.231,436.929 549.5,438.5 Z"/></g>
<g><path style="opacity:1" fill="#212321" d="M 208.5,381.5 C 210.792,381.244 212.959,381.577 215,382.5C 217.469,385.759 217.635,388.926 215.5,392C 186.761,411.244 156.594,414.744 125,402.5C 102.847,394.995 82.1804,397.995 63,411.5C 62.8333,411.167 62.6667,410.833 62.5,410.5C 73.1509,400.495 85.4843,392.995 99.5,388C 104.167,387.333 108.833,387.333 113.5,388C 127.223,392.488 141.556,395.988 156.5,398.5C 175.151,396.393 192.485,390.727 208.5,381.5 Z"/></g>
<g><path style="opacity:1" fill="#bd2626" d="M 549.5,438.5 C 563.833,438.5 578.167,438.5 592.5,438.5C 560.931,439.828 529.931,439.828 499.5,438.5C 510.5,438.5 521.5,438.5 532.5,438.5C 538.167,437.167 543.833,437.167 549.5,438.5 Z"/></g>
<g><path style="opacity:1" fill="#f9f9f9" d="M 34.5,496.5 C 42.5069,496.334 50.5069,496.5 58.5,497C 67.8505,500.663 71.3505,507.497 69,517.5C 67.4256,521.561 65.2589,525.228 62.5,528.5C 65.2243,534.949 68.2243,541.283 71.5,547.5C 67.8927,548.489 64.226,548.823 60.5,548.5C 58.5689,542.378 56.2355,536.378 53.5,530.5C 50.2317,529.513 46.8984,529.18 43.5,529.5C 43.5,535.833 43.5,542.167 43.5,548.5C 40.5,548.5 37.5,548.5 34.5,548.5C 34.5,531.167 34.5,513.833 34.5,496.5 Z"/></g>
<g><path style="opacity:1" fill="#f9f9f9" d="M 114.5,504.5 C 105.5,504.5 96.5,504.5 87.5,504.5C 87.5,509.167 87.5,513.833 87.5,518.5C 94.1667,518.5 100.833,518.5 107.5,518.5C 107.5,521.167 107.5,523.833 107.5,526.5C 101.167,526.5 94.8333,526.5 88.5,526.5C 87.5139,530.97 87.1805,535.637 87.5,540.5C 96.5,540.5 105.5,540.5 114.5,540.5C 114.5,543.167 114.5,545.833 114.5,548.5C 102.5,548.5 90.5,548.5 78.5,548.5C 78.5,531.167 78.5,513.833 78.5,496.5C 90.5,496.5 102.5,496.5 114.5,496.5C 114.5,499.167 114.5,501.833 114.5,504.5 Z"/></g>
<g><path style="opacity:1" fill="#f8f8f8" d="M 118.5,497.5 C 121.625,496.521 124.958,496.187 128.5,496.5C 131.833,510.834 135.333,525.167 139,539.5C 143.296,525.317 147.13,510.984 150.5,496.5C 153.5,496.5 156.5,496.5 159.5,496.5C 155.334,513.162 151.168,529.829 147,546.5C 144.787,547.76 142.287,548.426 139.5,548.5C 136.713,548.426 134.213,547.76 132,546.5C 127.76,529.968 123.26,513.635 118.5,497.5 Z"/></g>
<g><path style="opacity:1" fill="#f5f5f5" d="M 178.5,495.5 C 190.844,494.253 198.677,499.586 202,511.5C 203.011,520.963 202.344,530.296 200,539.5C 193.422,549.684 184.589,552.184 173.5,547C 169.338,544.188 166.505,540.355 165,535.5C 161.597,522.752 163.431,510.919 170.5,500C 173.099,498.205 175.766,496.705 178.5,495.5 Z"/></g>
<g><path style="opacity:1" fill="#fafafa" d="M 219.5,496.5 C 219.5,511.167 219.5,525.833 219.5,540.5C 228.167,540.5 236.833,540.5 245.5,540.5C 246.473,542.948 246.806,545.615 246.5,548.5C 234.5,548.5 222.5,548.5 210.5,548.5C 210.5,531.167 210.5,513.833 210.5,496.5C 213.5,496.5 216.5,496.5 219.5,496.5 Z"/></g>
<g><path style="opacity:1" fill="#464646" d="M 219.5,496.5 C 220.496,510.657 220.829,524.99 220.5,539.5C 229.017,539.174 237.35,539.507 245.5,540.5C 236.833,540.5 228.167,540.5 219.5,540.5C 219.5,525.833 219.5,511.167 219.5,496.5 Z"/></g>
<g><path style="opacity:1" fill="#f6f6f6" d="M 253.5,496.5 C 256.5,496.5 259.5,496.5 262.5,496.5C 262.333,509.504 262.5,522.504 263,535.5C 265.799,540.287 269.966,541.787 275.5,540C 276.667,538.833 277.833,537.667 279,536.5C 279.5,523.171 279.667,509.837 279.5,496.5C 282.5,496.5 285.5,496.5 288.5,496.5C 288.932,511.225 288.432,525.892 287,540.5C 283.372,546.777 277.872,549.777 270.5,549.5C 261.635,549.471 256.135,545.138 254,536.5C 253.5,523.171 253.333,509.837 253.5,496.5 Z"/></g>
<g><path style="opacity:1" fill="#fdfdfd" d="M 295.5,496.5 C 308.5,496.5 321.5,496.5 334.5,496.5C 334.5,499.167 334.5,501.833 334.5,504.5C 329.5,504.5 324.5,504.5 319.5,504.5C 319.5,519.167 319.5,533.833 319.5,548.5C 316.5,548.5 313.5,548.5 310.5,548.5C 310.5,533.833 310.5,519.167 310.5,504.5C 305.5,504.5 300.5,504.5 295.5,504.5C 295.5,501.833 295.5,499.167 295.5,496.5 Z"/></g>
<g><path style="opacity:1" fill="#fdfdfd" d="M 342.5,496.5 C 353.5,496.5 364.5,496.5 375.5,496.5C 375.5,499.167 375.5,501.833 375.5,504.5C 371.5,504.5 367.5,504.5 363.5,504.5C 363.5,516.5 363.5,528.5 363.5,540.5C 367.5,540.5 371.5,540.5 375.5,540.5C 375.5,543.167 375.5,545.833 375.5,548.5C 364.5,548.5 353.5,548.5 342.5,548.5C 342.5,545.833 342.5,543.167 342.5,540.5C 346.5,540.5 350.5,540.5 354.5,540.5C 354.5,528.5 354.5,516.5 354.5,504.5C 350.5,504.5 346.5,504.5 342.5,504.5C 342.5,501.833 342.5,499.167 342.5,496.5 Z"/></g>
<g><path style="opacity:1" fill="#f6f6f6" d="M 397.5,495.5 C 411.908,493.787 420.075,500.121 422,514.5C 422.924,522.634 422.258,530.634 420,538.5C 417.668,544.164 413.501,547.664 407.5,549C 393.098,550.609 385.265,544.109 384,529.5C 382.968,521.669 383.635,514.002 386,506.5C 388.412,501.252 392.246,497.586 397.5,495.5 Z"/></g>
<g><path style="opacity:1" fill="#f4f4f4" d="M 453.5,534.5 C 453.369,535.376 453.702,536.043 454.5,536.5C 455.499,523.183 455.833,509.85 455.5,496.5C 458.5,496.5 461.5,496.5 464.5,496.5C 464.5,513.833 464.5,531.167 464.5,548.5C 459.901,548.8 455.401,548.467 451,547.5C 447.595,535.12 444.095,522.787 440.5,510.5C 440.631,509.624 440.298,508.957 439.5,508.5C 438.501,521.817 438.167,535.15 438.5,548.5C 435.5,548.5 432.5,548.5 429.5,548.5C 429.5,531.167 429.5,513.833 429.5,496.5C 434.167,496.5 438.833,496.5 443.5,496.5C 446.628,509.217 449.961,521.884 453.5,534.5 Z"/></g>
<g><path style="opacity:1" fill="#545554" d="M 455.5,496.5 C 455.833,509.85 455.499,523.183 454.5,536.5C 453.702,536.043 453.369,535.376 453.5,534.5C 454.167,521.833 454.833,509.167 455.5,496.5 Z"/></g>
<g><path style="opacity:1" fill="#f9f9f9" d="M 484.5,496.5 C 488.833,496.5 493.167,496.5 497.5,496.5C 501.961,513.884 506.628,531.217 511.5,548.5C 508.482,548.665 505.482,548.498 502.5,548C 501.427,544.88 500.427,541.713 499.5,538.5C 493.872,537.505 488.206,537.171 482.5,537.5C 481.516,540.812 480.516,544.145 479.5,547.5C 476.572,548.484 473.572,548.817 470.5,548.5C 475.165,531.173 479.832,513.84 484.5,496.5 Z"/></g>
<g><path style="opacity:1" fill="#f9f9f9" d="M 517.5,496.5 C 525.174,496.334 532.841,496.5 540.5,497C 553.863,501.929 557.03,510.762 550,523.5C 548.478,525.022 546.978,526.522 545.5,528C 548.931,534.69 551.931,541.523 554.5,548.5C 550.894,548.789 547.394,548.456 544,547.5C 541.691,541.568 539.191,535.734 536.5,530C 533.183,529.502 529.85,529.335 526.5,529.5C 526.5,535.833 526.5,542.167 526.5,548.5C 523.5,548.5 520.5,548.5 517.5,548.5C 517.5,531.167 517.5,513.833 517.5,496.5 Z"/></g>
<g><path style="opacity:1" fill="#f7f7f7" d="M 557.5,496.5 C 560.898,496.18 564.232,496.513 567.5,497.5C 571.244,505.246 575.077,512.912 579,520.5C 582.923,512.986 586.59,505.319 590,497.5C 593.409,496.378 596.909,496.211 600.5,497C 594.872,507.755 589.372,518.589 584,529.5C 583.5,535.825 583.334,542.158 583.5,548.5C 580.5,548.5 577.5,548.5 574.5,548.5C 574.666,542.491 574.499,536.491 574,530.5C 568.216,519.267 562.716,507.934 557.5,496.5 Z"/></g>
<g><path style="opacity:1" fill="#242524" d="M 178.5,504.5 C 186.28,502.783 191.113,505.783 193,513.5C 194.138,521.376 193.471,529.043 191,536.5C 186.284,541.395 181.284,541.728 176,537.5C 173.565,529.679 172.898,521.679 174,513.5C 174.842,510.161 176.342,507.161 178.5,504.5 Z"/></g>
<g><path style="opacity:1" fill="#252625" d="M 398.5,504.5 C 406.739,502.906 411.572,506.24 413,514.5C 413.739,520.558 413.406,526.558 412,532.5C 410.38,540.031 405.88,542.531 398.5,540C 396.106,538.048 394.606,535.548 394,532.5C 390.994,522.305 392.494,512.972 398.5,504.5 Z"/></g>
<g><path style="opacity:1" fill="#272827" d="M 43.5,504.5 C 47.8461,504.334 52.1794,504.501 56.5,505C 61.767,510.122 61.767,515.122 56.5,520C 52.1794,520.499 47.8461,520.666 43.5,520.5C 43.5,515.167 43.5,509.833 43.5,504.5 Z"/></g>
<g><path style="opacity:1" fill="#242524" d="M 526.5,504.5 C 530.846,504.334 535.179,504.501 539.5,505C 543.788,508.771 544.621,513.271 542,518.5C 541.25,519.126 540.416,519.626 539.5,520C 535.179,520.499 530.846,520.666 526.5,520.5C 526.5,515.167 526.5,509.833 526.5,504.5 Z"/></g>
<g><path style="opacity:1" fill="#2e2f2e" d="M 490.5,506.5 C 493.203,513.793 495.537,521.293 497.5,529C 493.129,529.828 488.795,529.661 484.5,528.5C 486.814,521.242 488.814,513.908 490.5,506.5 Z"/></g>
<g><path style="opacity:1" fill="#4c4c4c" d="M 114.5,504.5 C 106.016,505.493 97.3494,505.826 88.5,505.5C 88.5,509.5 88.5,513.5 88.5,517.5C 95.0221,517.177 101.355,517.51 107.5,518.5C 100.833,518.5 94.1667,518.5 87.5,518.5C 87.5,513.833 87.5,509.167 87.5,504.5C 96.5,504.5 105.5,504.5 114.5,504.5 Z"/></g>
<g><path style="opacity:1" fill="#515251" d="M 440.5,510.5 C 439.833,523.167 439.167,535.833 438.5,548.5C 438.167,535.15 438.501,521.817 439.5,508.5C 440.298,508.957 440.631,509.624 440.5,510.5 Z"/></g>
<g><path style="opacity:1" fill="#4e4e4e" d="M 88.5,526.5 C 88.5,530.833 88.5,535.167 88.5,539.5C 97.3494,539.174 106.016,539.507 114.5,540.5C 105.5,540.5 96.5,540.5 87.5,540.5C 87.1805,535.637 87.5139,530.97 88.5,526.5 Z"/></g>
</svg>
