<?xml version="1.0" encoding="UTF-8"?>
<!DOCTYPE svg PUBLIC "-//W3C//DTD SVG 1.1//EN" "http://www.w3.org/Graphics/SVG/1.1/DTD/svg11.dtd">
<svg xmlns="http://www.w3.org/2000/svg" version="1.1" width="625px" height="625px" style="shape-rendering:geometricPrecision; text-rendering:geometricPrecision; image-rendering:optimizeQuality; fill-rule:evenodd; clip-rule:evenodd" xmlns:xlink="http://www.w3.org/1999/xlink">
<g><path style="opacity:0.997" fill="#222322" d="M 21.5,-0.5 C 214.167,-0.5 406.833,-0.5 599.5,-0.5C 609.26,7.10371 617.093,16.437 623,27.5C 623.667,216.833 623.667,406.167 623,595.5C 615.026,607.143 604.859,616.31 592.5,623C 404.5,623.667 216.5,623.667 28.5,623C 17.151,616.817 7.48433,608.65 -0.5,598.5C -0.5,406.833 -0.5,215.167 -0.5,23.5C 2.64542,19.2341 5.81209,14.9008 9,10.5C 13.3327,6.93363 17.4994,3.26697 21.5,-0.5 Z"/></g>
<g><path style="opacity:1" fill="#32383c" d="M 336.5,53.5 C 332.503,50.835 328.17,48.6683 323.5,47C 313.667,46.8564 304.001,45.8564 294.5,44C 288.442,47.0579 284.109,51.7246 281.5,58C 272.799,57.1239 265.133,59.4572 258.5,65C 254.443,70.0585 250.776,75.3918 247.5,81C 237.087,87.6936 225.754,91.3603 213.5,92C 207.896,95.6033 203.729,100.437 201,106.5C 200.333,110.5 200.333,114.5 201,118.5C 202.826,120.074 204.993,120.907 207.5,121C 201.21,123.859 194.543,125.525 187.5,126C 176.172,134.161 172.338,144.994 176,158.5C 180.148,164.643 184.648,170.476 189.5,176C 191.833,176.667 194.167,176.667 196.5,176C 201.495,174.17 206.495,172.337 211.5,170.5C 218.468,172.471 225.468,174.305 232.5,176C 234.616,178.682 234.95,181.682 233.5,185C 233.354,187.034 234.02,188.701 235.5,190C 233.741,190.798 232.074,190.631 230.5,189.5C 233.122,185.632 233.122,181.798 230.5,178C 225.313,176.103 219.979,174.936 214.5,174.5C 204.163,176.67 193.83,178.836 183.5,181C 177.497,186.006 170.83,190.006 163.5,193C 163.114,198.462 162.78,203.962 162.5,209.5C 140.962,226.197 120.462,244.197 101,263.5C 92.7918,273.548 85.7918,284.548 80,296.5C 78.8195,300.891 77.4861,305.224 76,309.5C 75.3333,320.167 75.3333,330.833 76,341.5C 79.7313,355.963 85.398,369.63 93,382.5C 102.091,392.134 111.924,400.967 122.5,409C 165.988,426.585 203.488,418.085 235,383.5C 241.617,371.93 247.95,360.263 254,348.5C 257.085,338.572 258.585,328.405 258.5,318C 257.219,305.878 256.385,293.712 256,281.5C 249.077,257.632 244.41,233.299 242,208.5C 239.895,206.985 240.061,206.485 242.5,207C 247.5,210.667 252.5,214.333 257.5,218C 261.833,218.667 266.167,218.667 270.5,218C 278.724,215.865 287.057,215.198 295.5,216C 299.759,217.934 303.759,220.268 307.5,223C 309,223.167 310.5,223.333 312,223.5C 319.54,222.308 327.04,220.975 334.5,219.5C 341.096,220.815 347.762,221.481 354.5,221.5C 354.351,222.552 354.517,223.552 355,224.5C 357.57,226.869 360.404,228.869 363.5,230.5C 369.395,243.295 376.562,255.295 385,266.5C 391.045,280.681 398.878,293.681 408.5,305.5C 375.346,330.163 350.513,361.496 334,399.5C 329.011,411.629 325.511,424.129 323.5,437C 225.501,437.948 127.501,438.281 29.5,438C 28.6667,437.167 27.8333,436.333 27,435.5C 26.2086,306.83 26.542,178.164 28,49.5C 31.3437,38.8229 38.177,31.3229 48.5,27C 222.502,26.2099 396.502,26.5432 570.5,28C 584.288,32.1136 591.788,41.2803 593,55.5C 594.412,182.164 594.745,308.831 594,435.5C 593.167,436.333 592.333,437.167 591.5,438C 505.497,438.732 419.497,438.565 333.5,437.5C 336.4,420.02 341.9,403.353 350,387.5C 351,386.833 352,386.167 353,385.5C 355.333,380.5 357.667,375.5 360,370.5C 363.548,367.105 366.881,363.438 370,359.5C 380.987,340.513 395.987,325.513 415,314.5C 421.838,322.002 429.338,328.835 437.5,335C 449.579,338.087 460.246,335.42 469.5,327C 486.301,310.894 499.801,292.394 510,271.5C 518.804,252.086 525.804,232.086 531,211.5C 531.167,201.5 531.333,191.5 531.5,181.5C 531.611,169.787 531.111,158.121 530,146.5C 528.274,142.047 526.274,137.714 524,133.5C 522.829,132.107 521.329,131.273 519.5,131C 518.743,129.488 517.743,128.154 516.5,127C 502.321,122.765 487.821,120.932 473,121.5C 458.829,121.867 444.662,122.367 430.5,123C 426.819,123.845 423.153,124.678 419.5,125.5C 416.761,125.519 414.261,124.852 412,123.5C 410.634,123.706 409.301,124.04 408,124.5C 403.838,122.003 399.338,120.503 394.5,120C 388.577,108.998 381.077,99.1644 372,90.5C 363.833,77 353,66.1667 339.5,58C 337.859,56.871 336.859,55.371 336.5,53.5 Z"/></g>
<g><path style="opacity:1" fill="#222322" d="M 336.5,53.5 C 338.426,48.3846 341.426,43.8846 345.5,40C 363.177,41.3426 372.343,50.8426 373,68.5C 369.974,71.0263 366.807,73.3596 363.5,75.5C 355.061,67.3863 346.061,60.0529 336.5,53.5 Z"/></g>
<g><path style="opacity:1" fill="#222322" d="M 381.5,69.5 C 419.462,69.8068 448.129,86.1401 467.5,118.5C 464.792,120.436 461.792,120.936 458.5,120C 454.042,113.208 448.542,107.375 442,102.5C 441.691,101.234 441.191,100.067 440.5,99C 431.662,93.1112 422.662,87.7778 413.5,83C 404.763,81.0851 395.929,79.9185 387,79.5C 380.697,79.9307 374.53,80.7641 368.5,82C 365.833,79.3333 365.833,76.6667 368.5,74C 372.577,71.4596 376.91,69.9596 381.5,69.5 Z"/></g>
<g><path style="opacity:1" fill="#31363a" d="M 296.5,54.5 C 298.028,54.5173 298.528,55.184 298,56.5C 294.287,61.4244 290.454,66.2577 286.5,71C 284.866,72.3083 283.032,73.1416 281,73.5C 274.933,69.9129 269.933,70.9129 266,76.5C 264.643,80.7457 262.81,84.7457 260.5,88.5C 257.399,90.0984 254.732,92.2651 252.5,95C 247.805,95.8723 243.139,96.8723 238.5,98C 237.667,98.8333 236.833,99.6667 236,100.5C 232.21,109.325 228.877,118.325 226,127.5C 223.718,132.116 220.384,135.783 216,138.5C 208.061,147.266 208.894,154.933 218.5,161.5C 218,161.833 217.5,162.167 217,162.5C 209.064,159.963 206.398,154.629 209,146.5C 211.224,140.943 214.891,136.61 220,133.5C 221.31,128.876 223.644,124.876 227,121.5C 226.408,111.277 229.408,102.277 236,94.5C 242.179,93.2218 248.345,91.7218 254.5,90C 257.615,83.6412 261.282,77.6412 265.5,72C 273.145,69.7529 280.812,67.5862 288.5,65.5C 290.439,61.2822 293.106,57.6156 296.5,54.5 Z"/></g>
<g><path style="opacity:1" fill="#32383c" d="M 222.5,197.5 C 226.606,199.64 230.939,201.473 235.5,203C 234.552,203.483 233.552,203.649 232.5,203.5C 232.188,214.211 232.688,224.878 234,235.5C 236.745,247.893 239.745,260.226 243,272.5C 251.024,304.592 248.024,335.592 234,365.5C 226.5,374.333 218.333,382.5 209.5,390C 182.873,407.449 155.206,409.115 126.5,395C 107.377,380.255 95.2101,361.088 90,337.5C 88.2331,318.9 92.5664,301.9 103,286.5C 122.363,263.797 144.196,243.964 168.5,227C 171.309,225.342 174.309,224.175 177.5,223.5C 180.344,225.495 183.344,227.328 186.5,229C 188.5,229.667 190.5,229.667 192.5,229C 202.394,218.275 212.394,207.775 222.5,197.5 Z"/></g>
<g><path style="opacity:1" fill="#f7f7f7" d="M 88.5,491.5 C 94.5092,491.334 100.509,491.501 106.5,492C 111.124,493.31 115.124,495.644 118.5,499C 116.353,502.115 113.853,504.948 111,507.5C 104.596,500.965 97.5958,499.965 90,504.5C 89.1067,507.916 89.6067,511.083 91.5,514C 99.4144,517.871 106.914,522.371 114,527.5C 120.343,536.078 119.843,544.245 112.5,552C 100.397,557.443 88.0641,557.943 75.5,553.5C 75.9422,549.846 76.2756,546.179 76.5,542.5C 82.4896,544.538 88.6563,545.872 95,546.5C 103.338,547.207 107.005,543.541 106,535.5C 98.5829,530.874 91.0829,526.374 83.5,522C 77.4622,515.828 75.9622,508.662 79,500.5C 81.4057,496.592 84.5724,493.592 88.5,491.5 Z"/></g>
<g><path style="opacity:1" fill="#a3a3a3" d="M 344.5,492.5 C 346.978,491.836 349.645,491.503 352.5,491.5C 355.59,491.522 358.257,492.188 360.5,493.5C 355.26,492.551 349.927,492.218 344.5,492.5 Z"/></g>
<g><path style="opacity:1" fill="#f6f6f6" d="M 469.5,491.5 C 475.509,491.334 481.509,491.501 487.5,492C 491.533,493.349 494.866,495.682 497.5,499C 495.689,501.978 493.356,504.478 490.5,506.5C 480.839,499.185 472.005,500.185 464,509.5C 461.111,517.722 460.778,526.055 463,534.5C 466.205,542.187 472.038,546.187 480.5,546.5C 485.017,546.287 489.35,545.287 493.5,543.5C 495.057,546.088 496.057,548.921 496.5,552C 496.095,552.945 495.428,553.612 494.5,554C 483.22,557.827 472.22,557.16 461.5,552C 454.946,546.727 451.112,539.894 450,531.5C 447.81,519.262 450.477,508.262 458,498.5C 461.514,495.5 465.347,493.167 469.5,491.5 Z"/></g>
<g><path style="opacity:1" fill="#888888" d="M 141.5,538.5 C 140.504,523.342 140.17,508.009 140.5,492.5C 137.167,492.5 133.833,492.5 130.5,492.5C 130.5,508.5 130.5,524.5 130.5,540.5C 129.504,524.342 129.17,508.009 129.5,491.5C 133.5,491.5 137.5,491.5 141.5,491.5C 141.5,507.167 141.5,522.833 141.5,538.5 Z"/></g>
<g><path style="opacity:1" fill="#fcfcfc" d="M 141.5,538.5 C 143.385,545.112 147.718,547.612 154.5,546C 157.057,545.315 158.891,543.815 160,541.5C 161.455,525.237 161.955,508.904 161.5,492.5C 164.833,492.5 168.167,492.5 171.5,492.5C 171.5,508.5 171.5,524.5 171.5,540.5C 169.189,551.795 162.189,557.129 150.5,556.5C 139.287,556.603 132.621,551.27 130.5,540.5C 130.5,524.5 130.5,508.5 130.5,492.5C 133.833,492.5 137.167,492.5 140.5,492.5C 140.17,508.009 140.504,523.342 141.5,538.5 Z"/></g>
<g><path style="opacity:1" fill="#fafafa" d="M 184.5,491.5 C 192.84,491.334 201.173,491.5 209.5,492C 226.346,496.215 232.179,506.715 227,523.5C 223.817,530.679 218.317,534.846 210.5,536C 205.511,536.499 200.511,536.666 195.5,536.5C 195.5,542.833 195.5,549.167 195.5,555.5C 191.833,555.5 188.167,555.5 184.5,555.5C 184.5,534.167 184.5,512.833 184.5,491.5 Z"/></g>
<g><path style="opacity:1" fill="#f9f9f9" d="M 237.5,491.5 C 246.506,491.334 255.506,491.5 264.5,492C 278.481,495.44 283.647,504.274 280,518.5C 278.168,523.173 275.334,527.173 271.5,530.5C 275.1,538.866 279.1,547.033 283.5,555C 279.167,555.667 274.833,555.667 270.5,555C 266.763,547.692 263.43,540.192 260.5,532.5C 256.555,531.509 252.555,531.176 248.5,531.5C 248.5,539.5 248.5,547.5 248.5,555.5C 244.833,555.5 241.167,555.5 237.5,555.5C 237.5,534.167 237.5,512.833 237.5,491.5 Z"/></g>
<g><path style="opacity:1" fill="#fdfdfd" d="M 303.5,518.5 C 311.5,518.5 319.5,518.5 327.5,518.5C 327.5,521.833 327.5,525.167 327.5,528.5C 319.167,528.5 310.833,528.5 302.5,528.5C 302.5,534.167 302.5,539.833 302.5,545.5C 313.5,545.5 324.5,545.5 335.5,545.5C 335.5,548.833 335.5,552.167 335.5,555.5C 321.167,555.5 306.833,555.5 292.5,555.5C 292.5,534.5 292.5,513.5 292.5,492.5C 306.5,492.5 320.5,492.5 334.5,492.5C 334.5,495.5 334.5,498.5 334.5,501.5C 323.833,501.5 313.167,501.5 302.5,501.5C 302.178,507.358 302.511,513.025 303.5,518.5 Z"/></g>
<g><path style="opacity:1" fill="#fbfbfb" d="M 377.5,555.5 C 377.833,538.154 377.5,520.821 376.5,503.5C 375.702,503.957 375.369,504.624 375.5,505.5C 373.833,514.17 372.166,522.837 370.5,531.5C 367.5,531.5 364.5,531.5 361.5,531.5C 359.629,522.147 357.629,512.814 355.5,503.5C 354.5,520.821 354.167,538.154 354.5,555.5C 351.167,555.5 347.833,555.5 344.5,555.5C 344.5,534.5 344.5,513.5 344.5,492.5C 349.927,492.218 355.26,492.551 360.5,493.5C 362.266,502.162 364.099,510.829 366,519.5C 367.9,510.166 369.734,500.833 371.5,491.5C 376.833,491.5 382.167,491.5 387.5,491.5C 387.5,512.833 387.5,534.167 387.5,555.5C 384.167,555.5 380.833,555.5 377.5,555.5 Z"/></g>
<g><path style="opacity:1" fill="#f8f8f8" d="M 412.5,491.5 C 417.43,491.197 422.263,491.531 427,492.5C 433.306,513.393 439.139,534.393 444.5,555.5C 440.774,555.823 437.107,555.489 433.5,554.5C 432.184,550.571 431.184,546.571 430.5,542.5C 423.167,542.5 415.833,542.5 408.5,542.5C 407.673,546.807 407.007,551.14 406.5,555.5C 402.5,555.5 398.5,555.5 394.5,555.5C 400.297,534.109 406.297,512.776 412.5,491.5 Z"/></g>
<g><path style="opacity:1" fill="#f9f9f9" d="M 500.5,492.5 C 504.566,491.178 508.733,491.178 513,492.5C 517.667,502.5 522.333,512.5 527,522.5C 531.667,512.5 536.333,502.5 541,492.5C 545.118,491.202 549.285,491.202 553.5,492.5C 546.139,505.888 539.306,519.555 533,533.5C 532.5,540.826 532.334,548.159 532.5,555.5C 528.833,555.5 525.167,555.5 521.5,555.5C 521.666,547.826 521.5,540.159 521,532.5C 514.392,518.949 507.559,505.616 500.5,492.5 Z"/></g>
<g><path style="opacity:1" fill="#afb0af" d="M 161.5,492.5 C 164.962,491.518 168.629,491.185 172.5,491.5C 172.83,508.009 172.496,524.342 171.5,540.5C 171.5,524.5 171.5,508.5 171.5,492.5C 168.167,492.5 164.833,492.5 161.5,492.5 Z"/></g>
<g><path style="opacity:1" fill="#8c8d8c" d="M 303.5,518.5 C 302.511,513.025 302.178,507.358 302.5,501.5C 313.167,501.5 323.833,501.5 334.5,501.5C 334.5,498.5 334.5,495.5 334.5,492.5C 320.5,492.5 306.5,492.5 292.5,492.5C 292.5,513.5 292.5,534.5 292.5,555.5C 291.503,534.34 291.169,513.007 291.5,491.5C 306.167,491.5 320.833,491.5 335.5,491.5C 335.5,495.167 335.5,498.833 335.5,502.5C 324.833,502.5 314.167,502.5 303.5,502.5C 303.5,507.833 303.5,513.167 303.5,518.5 Z"/></g>
<g><path style="opacity:1" fill="#252625" d="M 195.5,501.5 C 201.402,500.962 207.068,501.795 212.5,504C 215.766,506.536 217.1,509.869 216.5,514C 217.005,518.656 215.338,522.323 211.5,525C 206.292,526.397 200.959,526.897 195.5,526.5C 195.5,518.167 195.5,509.833 195.5,501.5 Z"/></g>
<g><path style="opacity:1" fill="#262726" d="M 248.5,501.5 C 253.179,501.334 257.845,501.501 262.5,502C 270.275,506.34 271.608,512.34 266.5,520C 260.621,521.41 254.621,521.91 248.5,521.5C 248.5,514.833 248.5,508.167 248.5,501.5 Z"/></g>
<g><path style="opacity:1" fill="#4c4d4c" d="M 377.5,555.5 C 376.833,538.833 376.167,522.167 375.5,505.5C 375.369,504.624 375.702,503.957 376.5,503.5C 377.5,520.821 377.833,538.154 377.5,555.5 Z"/></g>
<g><path style="opacity:1" fill="#292a29" d="M 426.5,530.5 C 422.03,531.486 417.363,531.819 412.5,531.5C 414.362,522.385 416.695,513.385 419.5,504.5C 422.456,512.991 424.79,521.658 426.5,530.5 Z"/></g>
<g><path style="opacity:1" fill="#8c8c8c" d="M 426.5,530.5 C 427.043,530.56 427.376,530.893 427.5,531.5C 422.348,532.814 417.348,532.814 412.5,531.5C 417.363,531.819 422.03,531.486 426.5,530.5 Z"/></g>
</svg>
